<mxfile host="app.diagrams.net" modified="2021-08-26T08:11:47.049Z" agent="5.0 (Macintosh; Intel Mac OS X 10_14_5) AppleWebKit/537.36 (KHTML, like Gecko) Chrome/92.0.4515.159 Safari/537.36" etag="4ZfqTCtj43NHN5-Kf6Ew" version="14.9.5" type="github" pages="2">
  <diagram id="AP7MPyzBHLV_mP8K46hF" name="Page-1">
    <mxGraphModel dx="1261" dy="861" grid="0" gridSize="10" guides="1" tooltips="1" connect="1" arrows="1" fold="1" page="1" pageScale="1" pageWidth="827" pageHeight="1169" math="0" shadow="0">
      <root>
        <mxCell id="0" />
        <mxCell id="1" parent="0" />
        <mxCell id="wbXpezz0VNGxaIe4ll2v-1" value="" style="rounded=0;whiteSpace=wrap;html=1;" parent="1" vertex="1">
          <mxGeometry x="33" y="40.17" width="190" height="320" as="geometry" />
        </mxCell>
        <mxCell id="wbXpezz0VNGxaIe4ll2v-2" value="" style="verticalLabelPosition=bottom;verticalAlign=top;html=1;shadow=0;dashed=0;strokeWidth=1;shape=mxgraph.android.keyboard;" parent="1" vertex="1">
          <mxGeometry x="35.5" y="256.17" width="185" height="100" as="geometry" />
        </mxCell>
        <mxCell id="wbXpezz0VNGxaIe4ll2v-3" value="" style="html=1;strokeWidth=1;shadow=0;dashed=0;shape=mxgraph.ios7ui.callout;strokeColor=none;fillColor=#E7E6EC;align=left;verticalAlign=middle;fontSize=7;spacingLeft=17;fontColor=#000000;spacingTop=2;whiteSpace=wrap;resizeWidth=1;" parent="1" vertex="1">
          <mxGeometry x="65.5" y="75.17" width="90" height="20" as="geometry">
            <mxPoint x="5" y="15" as="offset" />
          </mxGeometry>
        </mxCell>
        <mxCell id="wbXpezz0VNGxaIe4ll2v-4" value="&lt;div style=&quot;text-align: justify&quot;&gt;&lt;br&gt;&lt;/div&gt;" style="html=1;strokeWidth=1;shadow=0;dashed=0;shape=mxgraph.ios7ui.callout;strokeColor=none;fillColor=#0680FF;flipH=1;align=center;verticalAlign=top;fontSize=7;spacingLeft=2;fontColor=#ffffff;spacingTop=-2;whiteSpace=wrap;spacingRight=12;resizeWidth=1;" parent="1" vertex="1">
          <mxGeometry x="103" y="112.67" width="87.5" height="25" as="geometry">
            <mxPoint y="40" as="offset" />
          </mxGeometry>
        </mxCell>
        <mxCell id="wbXpezz0VNGxaIe4ll2v-5" value="" style="verticalLabelPosition=bottom;shadow=0;dashed=0;align=center;html=1;verticalAlign=top;strokeWidth=1;shape=mxgraph.mockup.containers.userMale;strokeColor=#666666;strokeColor2=#008cff;" parent="1" vertex="1">
          <mxGeometry x="35.5" y="70.17" width="30" height="30" as="geometry" />
        </mxCell>
        <mxCell id="wbXpezz0VNGxaIe4ll2v-6" value="" style="verticalLabelPosition=bottom;shadow=0;dashed=0;align=center;html=1;verticalAlign=top;strokeWidth=1;shape=mxgraph.mockup.containers.userFemale;strokeColor=#666666;strokeColor2=#008cff;" parent="1" vertex="1">
          <mxGeometry x="190.5" y="107.67" width="30" height="30" as="geometry" />
        </mxCell>
        <mxCell id="wbXpezz0VNGxaIe4ll2v-7" value="" style="html=1;strokeWidth=1;shadow=0;dashed=0;shape=mxgraph.ios7ui.callout;strokeColor=none;fillColor=#E7E6EC;align=left;verticalAlign=middle;fontSize=7;spacingLeft=17;fontColor=#000000;spacingTop=2;whiteSpace=wrap;resizeWidth=1;" parent="1" vertex="1">
          <mxGeometry x="65.5" y="155.17" width="90" height="20" as="geometry">
            <mxPoint x="5" y="15" as="offset" />
          </mxGeometry>
        </mxCell>
        <mxCell id="wbXpezz0VNGxaIe4ll2v-8" value="" style="verticalLabelPosition=bottom;shadow=0;dashed=0;align=center;html=1;verticalAlign=top;strokeWidth=1;shape=mxgraph.mockup.containers.userMale;strokeColor=#666666;strokeColor2=#008cff;" parent="1" vertex="1">
          <mxGeometry x="35.5" y="150.17" width="30" height="30" as="geometry" />
        </mxCell>
        <mxCell id="wbXpezz0VNGxaIe4ll2v-9" value="&lt;div style=&quot;text-align: justify&quot;&gt;&lt;br&gt;&lt;/div&gt;" style="html=1;strokeWidth=1;shadow=0;dashed=0;shape=mxgraph.ios7ui.callout;strokeColor=none;fillColor=#0680FF;flipH=1;align=center;verticalAlign=top;fontSize=7;spacingLeft=2;fontColor=#ffffff;spacingTop=-2;whiteSpace=wrap;spacingRight=12;resizeWidth=1;" parent="1" vertex="1">
          <mxGeometry x="103" y="190.17" width="87.5" height="25" as="geometry">
            <mxPoint y="40" as="offset" />
          </mxGeometry>
        </mxCell>
        <mxCell id="wbXpezz0VNGxaIe4ll2v-10" value="" style="verticalLabelPosition=bottom;shadow=0;dashed=0;align=center;html=1;verticalAlign=top;strokeWidth=1;shape=mxgraph.mockup.containers.userFemale;strokeColor=#666666;strokeColor2=#008cff;" parent="1" vertex="1">
          <mxGeometry x="190.5" y="185.17" width="30" height="30" as="geometry" />
        </mxCell>
        <mxCell id="wbXpezz0VNGxaIe4ll2v-11" value="xxxxxxxx" style="text;html=1;strokeColor=none;fillColor=none;align=center;verticalAlign=middle;whiteSpace=wrap;rounded=0;" parent="1" vertex="1">
          <mxGeometry x="83" y="75.17" width="60" height="20" as="geometry" />
        </mxCell>
        <mxCell id="wbXpezz0VNGxaIe4ll2v-12" value="xxxxxxxx" style="text;html=1;strokeColor=none;fillColor=none;align=center;verticalAlign=middle;whiteSpace=wrap;rounded=0;" parent="1" vertex="1">
          <mxGeometry x="113" y="117.67" width="60" height="20" as="geometry" />
        </mxCell>
        <mxCell id="wbXpezz0VNGxaIe4ll2v-13" value="xxxxxxxx" style="text;html=1;strokeColor=none;fillColor=none;align=center;verticalAlign=middle;whiteSpace=wrap;rounded=0;" parent="1" vertex="1">
          <mxGeometry x="83" y="155.17" width="60" height="20" as="geometry" />
        </mxCell>
        <mxCell id="wbXpezz0VNGxaIe4ll2v-14" value="xxxxxxxx" style="text;html=1;strokeColor=none;fillColor=none;align=center;verticalAlign=middle;whiteSpace=wrap;rounded=0;" parent="1" vertex="1">
          <mxGeometry x="113" y="195.17" width="60" height="20" as="geometry" />
        </mxCell>
        <mxCell id="wbXpezz0VNGxaIe4ll2v-15" value="" style="line;strokeWidth=1;html=1;" parent="1" vertex="1">
          <mxGeometry x="33" y="60.17" width="190" height="10" as="geometry" />
        </mxCell>
        <mxCell id="wbXpezz0VNGxaIe4ll2v-16" value="&lt;font style=&quot;font-weight: normal ; font-size: 13px&quot;&gt;联系人1&lt;/font&gt;" style="text;strokeColor=none;fillColor=none;html=1;fontSize=24;fontStyle=1;verticalAlign=middle;align=center;" parent="1" vertex="1">
          <mxGeometry x="93" y="34.17" width="70" height="30" as="geometry" />
        </mxCell>
        <mxCell id="wbXpezz0VNGxaIe4ll2v-17" value="&lt;span style=&quot;font-weight: normal&quot;&gt;&lt;font style=&quot;font-size: 18px&quot;&gt;...&lt;/font&gt;&lt;/span&gt;" style="text;strokeColor=none;fillColor=none;html=1;fontSize=24;fontStyle=1;verticalAlign=middle;align=center;" parent="1" vertex="1">
          <mxGeometry x="193" y="29.17" width="30" height="40" as="geometry" />
        </mxCell>
        <mxCell id="wbXpezz0VNGxaIe4ll2v-18" value="&lt;span style=&quot;font-weight: normal&quot;&gt;&lt;font style=&quot;font-size: 18px&quot;&gt;&amp;lt;&lt;/font&gt;&lt;/span&gt;" style="text;strokeColor=none;fillColor=none;html=1;fontSize=24;fontStyle=1;verticalAlign=middle;align=center;" parent="1" vertex="1">
          <mxGeometry x="33" y="30.17" width="30" height="40" as="geometry" />
        </mxCell>
        <mxCell id="wbXpezz0VNGxaIe4ll2v-19" value="" style="rounded=0;whiteSpace=wrap;html=1;" parent="1" vertex="1">
          <mxGeometry x="463" y="29.17" width="60" height="320" as="geometry" />
        </mxCell>
        <mxCell id="wbXpezz0VNGxaIe4ll2v-20" value="" style="rounded=0;whiteSpace=wrap;html=1;" parent="1" vertex="1">
          <mxGeometry x="273" y="29.17" width="190" height="320" as="geometry" />
        </mxCell>
        <mxCell id="wbXpezz0VNGxaIe4ll2v-21" value="" style="verticalLabelPosition=bottom;verticalAlign=top;html=1;shadow=0;dashed=0;strokeWidth=1;shape=mxgraph.android.keyboard;" parent="1" vertex="1">
          <mxGeometry x="275.5" y="245.17" width="185" height="100" as="geometry" />
        </mxCell>
        <mxCell id="wbXpezz0VNGxaIe4ll2v-22" value="" style="html=1;strokeWidth=1;shadow=0;dashed=0;shape=mxgraph.ios7ui.callout;strokeColor=none;fillColor=#E7E6EC;align=left;verticalAlign=middle;fontSize=7;spacingLeft=17;fontColor=#000000;spacingTop=2;whiteSpace=wrap;resizeWidth=1;" parent="1" vertex="1">
          <mxGeometry x="305.5" y="64.17" width="90" height="20" as="geometry">
            <mxPoint x="5" y="15" as="offset" />
          </mxGeometry>
        </mxCell>
        <mxCell id="wbXpezz0VNGxaIe4ll2v-23" value="&lt;div style=&quot;text-align: justify&quot;&gt;&lt;br&gt;&lt;/div&gt;" style="html=1;strokeWidth=1;shadow=0;dashed=0;shape=mxgraph.ios7ui.callout;strokeColor=none;fillColor=#0680FF;flipH=1;align=center;verticalAlign=top;fontSize=7;spacingLeft=2;fontColor=#ffffff;spacingTop=-2;whiteSpace=wrap;spacingRight=12;resizeWidth=1;" parent="1" vertex="1">
          <mxGeometry x="343" y="101.67" width="87.5" height="25" as="geometry">
            <mxPoint y="40" as="offset" />
          </mxGeometry>
        </mxCell>
        <mxCell id="wbXpezz0VNGxaIe4ll2v-24" value="" style="verticalLabelPosition=bottom;shadow=0;dashed=0;align=center;html=1;verticalAlign=top;strokeWidth=1;shape=mxgraph.mockup.containers.userMale;strokeColor=#666666;strokeColor2=#008cff;" parent="1" vertex="1">
          <mxGeometry x="275.5" y="59.17" width="30" height="30" as="geometry" />
        </mxCell>
        <mxCell id="wbXpezz0VNGxaIe4ll2v-25" value="" style="verticalLabelPosition=bottom;shadow=0;dashed=0;align=center;html=1;verticalAlign=top;strokeWidth=1;shape=mxgraph.mockup.containers.userFemale;strokeColor=#666666;strokeColor2=#008cff;" parent="1" vertex="1">
          <mxGeometry x="430.5" y="96.67" width="30" height="30" as="geometry" />
        </mxCell>
        <mxCell id="wbXpezz0VNGxaIe4ll2v-26" value="" style="html=1;strokeWidth=1;shadow=0;dashed=0;shape=mxgraph.ios7ui.callout;strokeColor=none;fillColor=#E7E6EC;align=left;verticalAlign=middle;fontSize=7;spacingLeft=17;fontColor=#000000;spacingTop=2;whiteSpace=wrap;resizeWidth=1;" parent="1" vertex="1">
          <mxGeometry x="305.5" y="144.17" width="90" height="20" as="geometry">
            <mxPoint x="5" y="15" as="offset" />
          </mxGeometry>
        </mxCell>
        <mxCell id="wbXpezz0VNGxaIe4ll2v-27" value="" style="verticalLabelPosition=bottom;shadow=0;dashed=0;align=center;html=1;verticalAlign=top;strokeWidth=1;shape=mxgraph.mockup.containers.userMale;strokeColor=#666666;strokeColor2=#008cff;" parent="1" vertex="1">
          <mxGeometry x="275.5" y="139.17" width="30" height="30" as="geometry" />
        </mxCell>
        <mxCell id="wbXpezz0VNGxaIe4ll2v-28" value="&lt;div style=&quot;text-align: justify&quot;&gt;&lt;br&gt;&lt;/div&gt;" style="html=1;strokeWidth=1;shadow=0;dashed=0;shape=mxgraph.ios7ui.callout;strokeColor=none;fillColor=#0680FF;flipH=1;align=center;verticalAlign=top;fontSize=7;spacingLeft=2;fontColor=#ffffff;spacingTop=-2;whiteSpace=wrap;spacingRight=12;resizeWidth=1;" parent="1" vertex="1">
          <mxGeometry x="343" y="179.17" width="87.5" height="25" as="geometry">
            <mxPoint y="40" as="offset" />
          </mxGeometry>
        </mxCell>
        <mxCell id="wbXpezz0VNGxaIe4ll2v-29" value="" style="verticalLabelPosition=bottom;shadow=0;dashed=0;align=center;html=1;verticalAlign=top;strokeWidth=1;shape=mxgraph.mockup.containers.userFemale;strokeColor=#666666;strokeColor2=#008cff;" parent="1" vertex="1">
          <mxGeometry x="430.5" y="174.17" width="30" height="30" as="geometry" />
        </mxCell>
        <mxCell id="wbXpezz0VNGxaIe4ll2v-30" value="xxxxxxxx" style="text;html=1;strokeColor=none;fillColor=none;align=center;verticalAlign=middle;whiteSpace=wrap;rounded=0;" parent="1" vertex="1">
          <mxGeometry x="323" y="64.17" width="60" height="20" as="geometry" />
        </mxCell>
        <mxCell id="wbXpezz0VNGxaIe4ll2v-31" value="xxxxxxxx" style="text;html=1;strokeColor=none;fillColor=none;align=center;verticalAlign=middle;whiteSpace=wrap;rounded=0;" parent="1" vertex="1">
          <mxGeometry x="353" y="106.67" width="60" height="20" as="geometry" />
        </mxCell>
        <mxCell id="wbXpezz0VNGxaIe4ll2v-32" value="xxxxxxxx" style="text;html=1;strokeColor=none;fillColor=none;align=center;verticalAlign=middle;whiteSpace=wrap;rounded=0;" parent="1" vertex="1">
          <mxGeometry x="323" y="144.17" width="60" height="20" as="geometry" />
        </mxCell>
        <mxCell id="wbXpezz0VNGxaIe4ll2v-33" value="xxxxxxxx" style="text;html=1;strokeColor=none;fillColor=none;align=center;verticalAlign=middle;whiteSpace=wrap;rounded=0;" parent="1" vertex="1">
          <mxGeometry x="353" y="184.17" width="60" height="20" as="geometry" />
        </mxCell>
        <mxCell id="wbXpezz0VNGxaIe4ll2v-34" value="" style="line;strokeWidth=1;html=1;" parent="1" vertex="1">
          <mxGeometry x="273" y="49.17" width="190" height="10" as="geometry" />
        </mxCell>
        <mxCell id="wbXpezz0VNGxaIe4ll2v-35" value="&lt;font style=&quot;font-weight: normal ; font-size: 13px&quot;&gt;联系人1&lt;/font&gt;" style="text;strokeColor=none;fillColor=none;html=1;fontSize=24;fontStyle=1;verticalAlign=middle;align=center;" parent="1" vertex="1">
          <mxGeometry x="333" y="23.17" width="70" height="30" as="geometry" />
        </mxCell>
        <mxCell id="wbXpezz0VNGxaIe4ll2v-36" value="&lt;span style=&quot;font-weight: normal&quot;&gt;&lt;font style=&quot;font-size: 18px&quot;&gt;...&lt;/font&gt;&lt;/span&gt;" style="text;strokeColor=none;fillColor=none;html=1;fontSize=24;fontStyle=1;verticalAlign=middle;align=center;" parent="1" vertex="1">
          <mxGeometry x="433" y="18.17" width="30" height="40" as="geometry" />
        </mxCell>
        <mxCell id="wbXpezz0VNGxaIe4ll2v-37" value="&lt;span style=&quot;font-weight: normal&quot;&gt;&lt;font style=&quot;font-size: 18px&quot;&gt;&amp;lt;&lt;/font&gt;&lt;/span&gt;" style="text;strokeColor=none;fillColor=none;html=1;fontSize=24;fontStyle=1;verticalAlign=middle;align=center;" parent="1" vertex="1">
          <mxGeometry x="273" y="19.17" width="30" height="40" as="geometry" />
        </mxCell>
        <mxCell id="wbXpezz0VNGxaIe4ll2v-39" value="&lt;font style=&quot;font-size: 13px ; font-weight: normal&quot;&gt;时钟&lt;/font&gt;" style="text;strokeColor=none;fillColor=none;html=1;fontSize=24;fontStyle=1;verticalAlign=middle;align=center;" parent="1" vertex="1">
          <mxGeometry x="458" y="89.17" width="70" height="30" as="geometry" />
        </mxCell>
        <mxCell id="wbXpezz0VNGxaIe4ll2v-40" value="&lt;span style=&quot;font-size: 13px ; font-weight: 400&quot;&gt;日历&lt;/span&gt;" style="text;strokeColor=none;fillColor=none;html=1;fontSize=24;fontStyle=1;verticalAlign=middle;align=center;" parent="1" vertex="1">
          <mxGeometry x="457.12" y="217.17" width="70" height="30" as="geometry" />
        </mxCell>
        <mxCell id="wbXpezz0VNGxaIe4ll2v-41" value="&lt;span style=&quot;font-size: 13px ; font-weight: 400&quot;&gt;天气&lt;/span&gt;" style="text;strokeColor=none;fillColor=none;html=1;fontSize=24;fontStyle=1;verticalAlign=middle;align=center;" parent="1" vertex="1">
          <mxGeometry x="458" y="153.17" width="70" height="30" as="geometry" />
        </mxCell>
        <mxCell id="wbXpezz0VNGxaIe4ll2v-42" value="&lt;span style=&quot;font-size: 13px ; font-weight: 400&quot;&gt;音乐&lt;/span&gt;" style="text;strokeColor=none;fillColor=none;html=1;fontSize=24;fontStyle=1;verticalAlign=middle;align=center;" parent="1" vertex="1">
          <mxGeometry x="458" y="283.17" width="70" height="30" as="geometry" />
        </mxCell>
        <mxCell id="wbXpezz0VNGxaIe4ll2v-46" value="App1" style="rounded=0;whiteSpace=wrap;html=1;aspect=fixed;" parent="1" vertex="1">
          <mxGeometry x="474.62" y="60.17" width="35" height="35" as="geometry" />
        </mxCell>
        <mxCell id="wbXpezz0VNGxaIe4ll2v-47" value="" style="rounded=0;whiteSpace=wrap;html=1;aspect=fixed;" parent="1" vertex="1">
          <mxGeometry x="475.5" y="126.67" width="35" height="35" as="geometry" />
        </mxCell>
        <mxCell id="wbXpezz0VNGxaIe4ll2v-48" value="" style="rounded=0;whiteSpace=wrap;html=1;aspect=fixed;" parent="1" vertex="1">
          <mxGeometry x="474.62" y="190.17" width="35" height="35" as="geometry" />
        </mxCell>
        <mxCell id="wbXpezz0VNGxaIe4ll2v-49" value="" style="rounded=0;whiteSpace=wrap;html=1;aspect=fixed;" parent="1" vertex="1">
          <mxGeometry x="474.62" y="256.17" width="35" height="35" as="geometry" />
        </mxCell>
        <mxCell id="wbXpezz0VNGxaIe4ll2v-50" value="" style="rounded=0;whiteSpace=wrap;html=1;" parent="1" vertex="1">
          <mxGeometry x="217" y="408" width="120" height="320" as="geometry" />
        </mxCell>
        <mxCell id="wbXpezz0VNGxaIe4ll2v-51" value="" style="rounded=0;whiteSpace=wrap;html=1;" parent="1" vertex="1">
          <mxGeometry x="27" y="408" width="190" height="320" as="geometry" />
        </mxCell>
        <mxCell id="wbXpezz0VNGxaIe4ll2v-52" value="" style="verticalLabelPosition=bottom;verticalAlign=top;html=1;shadow=0;dashed=0;strokeWidth=1;shape=mxgraph.android.keyboard;" parent="1" vertex="1">
          <mxGeometry x="29.5" y="624" width="185" height="100" as="geometry" />
        </mxCell>
        <mxCell id="wbXpezz0VNGxaIe4ll2v-53" value="" style="html=1;strokeWidth=1;shadow=0;dashed=0;shape=mxgraph.ios7ui.callout;strokeColor=none;fillColor=#E7E6EC;align=left;verticalAlign=middle;fontSize=7;spacingLeft=17;fontColor=#000000;spacingTop=2;whiteSpace=wrap;resizeWidth=1;" parent="1" vertex="1">
          <mxGeometry x="59.5" y="443" width="90" height="20" as="geometry">
            <mxPoint x="5" y="15" as="offset" />
          </mxGeometry>
        </mxCell>
        <mxCell id="wbXpezz0VNGxaIe4ll2v-54" value="&lt;div style=&quot;text-align: justify&quot;&gt;&lt;br&gt;&lt;/div&gt;" style="html=1;strokeWidth=1;shadow=0;dashed=0;shape=mxgraph.ios7ui.callout;strokeColor=none;fillColor=#0680FF;flipH=1;align=center;verticalAlign=top;fontSize=7;spacingLeft=2;fontColor=#ffffff;spacingTop=-2;whiteSpace=wrap;spacingRight=12;resizeWidth=1;" parent="1" vertex="1">
          <mxGeometry x="97" y="480.5" width="87.5" height="25" as="geometry">
            <mxPoint y="40" as="offset" />
          </mxGeometry>
        </mxCell>
        <mxCell id="wbXpezz0VNGxaIe4ll2v-55" value="" style="verticalLabelPosition=bottom;shadow=0;dashed=0;align=center;html=1;verticalAlign=top;strokeWidth=1;shape=mxgraph.mockup.containers.userMale;strokeColor=#666666;strokeColor2=#008cff;" parent="1" vertex="1">
          <mxGeometry x="29.5" y="438" width="30" height="30" as="geometry" />
        </mxCell>
        <mxCell id="wbXpezz0VNGxaIe4ll2v-56" value="" style="verticalLabelPosition=bottom;shadow=0;dashed=0;align=center;html=1;verticalAlign=top;strokeWidth=1;shape=mxgraph.mockup.containers.userFemale;strokeColor=#666666;strokeColor2=#008cff;" parent="1" vertex="1">
          <mxGeometry x="184.5" y="475.5" width="30" height="30" as="geometry" />
        </mxCell>
        <mxCell id="wbXpezz0VNGxaIe4ll2v-57" value="" style="html=1;strokeWidth=1;shadow=0;dashed=0;shape=mxgraph.ios7ui.callout;strokeColor=none;fillColor=#E7E6EC;align=left;verticalAlign=middle;fontSize=7;spacingLeft=17;fontColor=#000000;spacingTop=2;whiteSpace=wrap;resizeWidth=1;" parent="1" vertex="1">
          <mxGeometry x="59.5" y="523" width="90" height="20" as="geometry">
            <mxPoint x="5" y="15" as="offset" />
          </mxGeometry>
        </mxCell>
        <mxCell id="wbXpezz0VNGxaIe4ll2v-58" value="" style="verticalLabelPosition=bottom;shadow=0;dashed=0;align=center;html=1;verticalAlign=top;strokeWidth=1;shape=mxgraph.mockup.containers.userMale;strokeColor=#666666;strokeColor2=#008cff;" parent="1" vertex="1">
          <mxGeometry x="29.5" y="518" width="30" height="30" as="geometry" />
        </mxCell>
        <mxCell id="wbXpezz0VNGxaIe4ll2v-59" value="&lt;div style=&quot;text-align: justify&quot;&gt;&lt;br&gt;&lt;/div&gt;" style="html=1;strokeWidth=1;shadow=0;dashed=0;shape=mxgraph.ios7ui.callout;strokeColor=none;fillColor=#0680FF;flipH=1;align=center;verticalAlign=top;fontSize=7;spacingLeft=2;fontColor=#ffffff;spacingTop=-2;whiteSpace=wrap;spacingRight=12;resizeWidth=1;" parent="1" vertex="1">
          <mxGeometry x="97" y="558" width="87.5" height="25" as="geometry">
            <mxPoint y="40" as="offset" />
          </mxGeometry>
        </mxCell>
        <mxCell id="wbXpezz0VNGxaIe4ll2v-60" value="" style="verticalLabelPosition=bottom;shadow=0;dashed=0;align=center;html=1;verticalAlign=top;strokeWidth=1;shape=mxgraph.mockup.containers.userFemale;strokeColor=#666666;strokeColor2=#008cff;" parent="1" vertex="1">
          <mxGeometry x="184.5" y="553" width="30" height="30" as="geometry" />
        </mxCell>
        <mxCell id="wbXpezz0VNGxaIe4ll2v-61" value="xxxxxxxx" style="text;html=1;strokeColor=none;fillColor=none;align=center;verticalAlign=middle;whiteSpace=wrap;rounded=0;" parent="1" vertex="1">
          <mxGeometry x="77" y="443" width="60" height="20" as="geometry" />
        </mxCell>
        <mxCell id="wbXpezz0VNGxaIe4ll2v-62" value="xxxxxxxx" style="text;html=1;strokeColor=none;fillColor=none;align=center;verticalAlign=middle;whiteSpace=wrap;rounded=0;" parent="1" vertex="1">
          <mxGeometry x="107" y="485.5" width="60" height="20" as="geometry" />
        </mxCell>
        <mxCell id="wbXpezz0VNGxaIe4ll2v-63" value="xxxxxxxx" style="text;html=1;strokeColor=none;fillColor=none;align=center;verticalAlign=middle;whiteSpace=wrap;rounded=0;" parent="1" vertex="1">
          <mxGeometry x="77" y="523" width="60" height="20" as="geometry" />
        </mxCell>
        <mxCell id="wbXpezz0VNGxaIe4ll2v-64" value="xxxxxxxx" style="text;html=1;strokeColor=none;fillColor=none;align=center;verticalAlign=middle;whiteSpace=wrap;rounded=0;" parent="1" vertex="1">
          <mxGeometry x="107" y="563" width="60" height="20" as="geometry" />
        </mxCell>
        <mxCell id="wbXpezz0VNGxaIe4ll2v-65" value="" style="line;strokeWidth=1;html=1;" parent="1" vertex="1">
          <mxGeometry x="27" y="428" width="190" height="10" as="geometry" />
        </mxCell>
        <mxCell id="wbXpezz0VNGxaIe4ll2v-66" value="&lt;font style=&quot;font-weight: normal ; font-size: 13px&quot;&gt;联系人1&lt;/font&gt;" style="text;strokeColor=none;fillColor=none;html=1;fontSize=24;fontStyle=1;verticalAlign=middle;align=center;" parent="1" vertex="1">
          <mxGeometry x="87" y="402" width="70" height="30" as="geometry" />
        </mxCell>
        <mxCell id="wbXpezz0VNGxaIe4ll2v-67" value="&lt;span style=&quot;font-weight: normal&quot;&gt;&lt;font style=&quot;font-size: 18px&quot;&gt;...&lt;/font&gt;&lt;/span&gt;" style="text;strokeColor=none;fillColor=none;html=1;fontSize=24;fontStyle=1;verticalAlign=middle;align=center;" parent="1" vertex="1">
          <mxGeometry x="187" y="397" width="30" height="40" as="geometry" />
        </mxCell>
        <mxCell id="wbXpezz0VNGxaIe4ll2v-68" value="&lt;span style=&quot;font-weight: normal&quot;&gt;&lt;font style=&quot;font-size: 18px&quot;&gt;&amp;lt;&lt;/font&gt;&lt;/span&gt;" style="text;strokeColor=none;fillColor=none;html=1;fontSize=24;fontStyle=1;verticalAlign=middle;align=center;" parent="1" vertex="1">
          <mxGeometry x="27" y="398" width="30" height="40" as="geometry" />
        </mxCell>
        <mxCell id="wbXpezz0VNGxaIe4ll2v-69" value="&lt;span style=&quot;font-size: 13px ; font-weight: 400&quot;&gt;天气&lt;/span&gt;" style="text;strokeColor=none;fillColor=none;html=1;fontSize=24;fontStyle=1;verticalAlign=middle;align=center;" parent="1" vertex="1">
          <mxGeometry x="242.26" y="682.11" width="70" height="30" as="geometry" />
        </mxCell>
        <mxCell id="wbXpezz0VNGxaIe4ll2v-70" value="&lt;font style=&quot;font-size: 13px ; font-weight: normal&quot;&gt;时钟&lt;/font&gt;" style="text;strokeColor=none;fillColor=none;html=1;fontSize=24;fontStyle=1;verticalAlign=middle;align=center;" parent="1" vertex="1">
          <mxGeometry x="242" y="536" width="70" height="30" as="geometry" />
        </mxCell>
        <mxCell id="wbXpezz0VNGxaIe4ll2v-74" value="" style="rounded=0;whiteSpace=wrap;html=1;aspect=fixed;" parent="1" vertex="1">
          <mxGeometry x="221.5" y="432" width="111" height="111" as="geometry" />
        </mxCell>
        <mxCell id="wbXpezz0VNGxaIe4ll2v-75" value="" style="rounded=0;whiteSpace=wrap;html=1;aspect=fixed;" parent="1" vertex="1">
          <mxGeometry x="221.76" y="574" width="111" height="111" as="geometry" />
        </mxCell>
        <mxCell id="wbXpezz0VNGxaIe4ll2v-76" value="" style="rounded=0;whiteSpace=wrap;html=1;" parent="1" vertex="1">
          <mxGeometry x="567.38" y="416" width="190" height="320" as="geometry" />
        </mxCell>
        <mxCell id="wbXpezz0VNGxaIe4ll2v-78" value="" style="rounded=0;whiteSpace=wrap;html=1;" parent="1" vertex="1">
          <mxGeometry x="377.38" y="416" width="190" height="320" as="geometry" />
        </mxCell>
        <mxCell id="wbXpezz0VNGxaIe4ll2v-79" value="" style="verticalLabelPosition=bottom;verticalAlign=top;html=1;shadow=0;dashed=0;strokeWidth=1;shape=mxgraph.android.keyboard;" parent="1" vertex="1">
          <mxGeometry x="379.88" y="632" width="185" height="100" as="geometry" />
        </mxCell>
        <mxCell id="wbXpezz0VNGxaIe4ll2v-80" value="" style="html=1;strokeWidth=1;shadow=0;dashed=0;shape=mxgraph.ios7ui.callout;strokeColor=none;fillColor=#E7E6EC;align=left;verticalAlign=middle;fontSize=7;spacingLeft=17;fontColor=#000000;spacingTop=2;whiteSpace=wrap;resizeWidth=1;" parent="1" vertex="1">
          <mxGeometry x="409.88" y="451" width="90" height="20" as="geometry">
            <mxPoint x="5" y="15" as="offset" />
          </mxGeometry>
        </mxCell>
        <mxCell id="wbXpezz0VNGxaIe4ll2v-81" value="&lt;div style=&quot;text-align: justify&quot;&gt;&lt;br&gt;&lt;/div&gt;" style="html=1;strokeWidth=1;shadow=0;dashed=0;shape=mxgraph.ios7ui.callout;strokeColor=none;fillColor=#0680FF;flipH=1;align=center;verticalAlign=top;fontSize=7;spacingLeft=2;fontColor=#ffffff;spacingTop=-2;whiteSpace=wrap;spacingRight=12;resizeWidth=1;" parent="1" vertex="1">
          <mxGeometry x="447.38" y="488.5" width="87.5" height="25" as="geometry">
            <mxPoint y="40" as="offset" />
          </mxGeometry>
        </mxCell>
        <mxCell id="wbXpezz0VNGxaIe4ll2v-82" value="" style="verticalLabelPosition=bottom;shadow=0;dashed=0;align=center;html=1;verticalAlign=top;strokeWidth=1;shape=mxgraph.mockup.containers.userMale;strokeColor=#666666;strokeColor2=#008cff;" parent="1" vertex="1">
          <mxGeometry x="379.88" y="446" width="30" height="30" as="geometry" />
        </mxCell>
        <mxCell id="wbXpezz0VNGxaIe4ll2v-83" value="" style="verticalLabelPosition=bottom;shadow=0;dashed=0;align=center;html=1;verticalAlign=top;strokeWidth=1;shape=mxgraph.mockup.containers.userFemale;strokeColor=#666666;strokeColor2=#008cff;" parent="1" vertex="1">
          <mxGeometry x="534.88" y="483.5" width="30" height="30" as="geometry" />
        </mxCell>
        <mxCell id="wbXpezz0VNGxaIe4ll2v-84" value="" style="html=1;strokeWidth=1;shadow=0;dashed=0;shape=mxgraph.ios7ui.callout;strokeColor=none;fillColor=#E7E6EC;align=left;verticalAlign=middle;fontSize=7;spacingLeft=17;fontColor=#000000;spacingTop=2;whiteSpace=wrap;resizeWidth=1;" parent="1" vertex="1">
          <mxGeometry x="409.88" y="531" width="90" height="20" as="geometry">
            <mxPoint x="5" y="15" as="offset" />
          </mxGeometry>
        </mxCell>
        <mxCell id="wbXpezz0VNGxaIe4ll2v-85" value="" style="verticalLabelPosition=bottom;shadow=0;dashed=0;align=center;html=1;verticalAlign=top;strokeWidth=1;shape=mxgraph.mockup.containers.userMale;strokeColor=#666666;strokeColor2=#008cff;" parent="1" vertex="1">
          <mxGeometry x="379.88" y="526" width="30" height="30" as="geometry" />
        </mxCell>
        <mxCell id="wbXpezz0VNGxaIe4ll2v-86" value="&lt;div style=&quot;text-align: justify&quot;&gt;&lt;br&gt;&lt;/div&gt;" style="html=1;strokeWidth=1;shadow=0;dashed=0;shape=mxgraph.ios7ui.callout;strokeColor=none;fillColor=#0680FF;flipH=1;align=center;verticalAlign=top;fontSize=7;spacingLeft=2;fontColor=#ffffff;spacingTop=-2;whiteSpace=wrap;spacingRight=12;resizeWidth=1;" parent="1" vertex="1">
          <mxGeometry x="447.38" y="566" width="87.5" height="25" as="geometry">
            <mxPoint y="40" as="offset" />
          </mxGeometry>
        </mxCell>
        <mxCell id="wbXpezz0VNGxaIe4ll2v-87" value="" style="verticalLabelPosition=bottom;shadow=0;dashed=0;align=center;html=1;verticalAlign=top;strokeWidth=1;shape=mxgraph.mockup.containers.userFemale;strokeColor=#666666;strokeColor2=#008cff;" parent="1" vertex="1">
          <mxGeometry x="534.88" y="561" width="30" height="30" as="geometry" />
        </mxCell>
        <mxCell id="wbXpezz0VNGxaIe4ll2v-88" value="xxxxxxxx" style="text;html=1;strokeColor=none;fillColor=none;align=center;verticalAlign=middle;whiteSpace=wrap;rounded=0;" parent="1" vertex="1">
          <mxGeometry x="427.38" y="451" width="60" height="20" as="geometry" />
        </mxCell>
        <mxCell id="wbXpezz0VNGxaIe4ll2v-89" value="xxxxxxxx" style="text;html=1;strokeColor=none;fillColor=none;align=center;verticalAlign=middle;whiteSpace=wrap;rounded=0;" parent="1" vertex="1">
          <mxGeometry x="457.38" y="493.5" width="60" height="20" as="geometry" />
        </mxCell>
        <mxCell id="wbXpezz0VNGxaIe4ll2v-90" value="xxxxxxxx" style="text;html=1;strokeColor=none;fillColor=none;align=center;verticalAlign=middle;whiteSpace=wrap;rounded=0;" parent="1" vertex="1">
          <mxGeometry x="427.38" y="531" width="60" height="20" as="geometry" />
        </mxCell>
        <mxCell id="wbXpezz0VNGxaIe4ll2v-91" value="xxxxxxxx" style="text;html=1;strokeColor=none;fillColor=none;align=center;verticalAlign=middle;whiteSpace=wrap;rounded=0;" parent="1" vertex="1">
          <mxGeometry x="457.38" y="571" width="60" height="20" as="geometry" />
        </mxCell>
        <mxCell id="wbXpezz0VNGxaIe4ll2v-92" value="" style="line;strokeWidth=1;html=1;" parent="1" vertex="1">
          <mxGeometry x="377.38" y="436" width="190" height="10" as="geometry" />
        </mxCell>
        <mxCell id="wbXpezz0VNGxaIe4ll2v-93" value="&lt;font style=&quot;font-weight: normal ; font-size: 13px&quot;&gt;联系人1&lt;/font&gt;" style="text;strokeColor=none;fillColor=none;html=1;fontSize=24;fontStyle=1;verticalAlign=middle;align=center;" parent="1" vertex="1">
          <mxGeometry x="437.38" y="410" width="70" height="30" as="geometry" />
        </mxCell>
        <mxCell id="wbXpezz0VNGxaIe4ll2v-94" value="&lt;span style=&quot;font-weight: normal&quot;&gt;&lt;font style=&quot;font-size: 18px&quot;&gt;...&lt;/font&gt;&lt;/span&gt;" style="text;strokeColor=none;fillColor=none;html=1;fontSize=24;fontStyle=1;verticalAlign=middle;align=center;" parent="1" vertex="1">
          <mxGeometry x="537.38" y="405" width="30" height="40" as="geometry" />
        </mxCell>
        <mxCell id="wbXpezz0VNGxaIe4ll2v-95" value="&lt;span style=&quot;font-weight: normal&quot;&gt;&lt;font style=&quot;font-size: 18px&quot;&gt;&amp;lt;&lt;/font&gt;&lt;/span&gt;" style="text;strokeColor=none;fillColor=none;html=1;fontSize=24;fontStyle=1;verticalAlign=middle;align=center;" parent="1" vertex="1">
          <mxGeometry x="377.38" y="406" width="30" height="40" as="geometry" />
        </mxCell>
        <mxCell id="wbXpezz0VNGxaIe4ll2v-96" value="&lt;font style=&quot;font-size: 13px ; font-weight: normal&quot;&gt;时钟&lt;/font&gt;" style="text;strokeColor=none;fillColor=none;html=1;fontSize=24;fontStyle=1;verticalAlign=middle;align=center;" parent="1" vertex="1">
          <mxGeometry x="627.1600000000002" y="526" width="70" height="30" as="geometry" />
        </mxCell>
        <mxCell id="wbXpezz0VNGxaIe4ll2v-97" value="&lt;span style=&quot;font-size: 13px ; font-weight: 400&quot;&gt;天气&lt;/span&gt;" style="text;strokeColor=none;fillColor=none;html=1;fontSize=24;fontStyle=1;verticalAlign=middle;align=center;" parent="1" vertex="1">
          <mxGeometry x="624.88" y="644" width="70" height="30" as="geometry" />
        </mxCell>
        <mxCell id="wbXpezz0VNGxaIe4ll2v-99" value="" style="rounded=0;whiteSpace=wrap;html=1;" parent="1" vertex="1">
          <mxGeometry x="570.88" y="445" width="183" height="85" as="geometry" />
        </mxCell>
        <mxCell id="wbXpezz0VNGxaIe4ll2v-100" value="" style="rounded=0;whiteSpace=wrap;html=1;" parent="1" vertex="1">
          <mxGeometry x="570.88" y="566" width="183" height="85" as="geometry" />
        </mxCell>
        <mxCell id="wbXpezz0VNGxaIe4ll2v-101" value="" style="rounded=0;whiteSpace=wrap;html=1;" parent="1" vertex="1">
          <mxGeometry x="250.5" y="783" width="190" height="320" as="geometry" />
        </mxCell>
        <mxCell id="wbXpezz0VNGxaIe4ll2v-102" value="" style="verticalLabelPosition=bottom;verticalAlign=top;html=1;shadow=0;dashed=0;strokeWidth=1;shape=mxgraph.android.time_picker_dark;aspect=fixed;" parent="1" vertex="1">
          <mxGeometry x="455.5000000000001" y="805" width="185" height="283.67" as="geometry" />
        </mxCell>
        <mxCell id="wbXpezz0VNGxaIe4ll2v-103" value="" style="rounded=0;whiteSpace=wrap;html=1;" parent="1" vertex="1">
          <mxGeometry x="60.5" y="783" width="190" height="320" as="geometry" />
        </mxCell>
        <mxCell id="wbXpezz0VNGxaIe4ll2v-104" value="" style="verticalLabelPosition=bottom;verticalAlign=top;html=1;shadow=0;dashed=0;strokeWidth=1;shape=mxgraph.android.keyboard;" parent="1" vertex="1">
          <mxGeometry x="63" y="999" width="185" height="100" as="geometry" />
        </mxCell>
        <mxCell id="wbXpezz0VNGxaIe4ll2v-105" value="" style="html=1;strokeWidth=1;shadow=0;dashed=0;shape=mxgraph.ios7ui.callout;strokeColor=none;fillColor=#E7E6EC;align=left;verticalAlign=middle;fontSize=7;spacingLeft=17;fontColor=#000000;spacingTop=2;whiteSpace=wrap;resizeWidth=1;" parent="1" vertex="1">
          <mxGeometry x="93" y="818" width="90" height="20" as="geometry">
            <mxPoint x="5" y="15" as="offset" />
          </mxGeometry>
        </mxCell>
        <mxCell id="wbXpezz0VNGxaIe4ll2v-106" value="&lt;div style=&quot;text-align: justify&quot;&gt;&lt;br&gt;&lt;/div&gt;" style="html=1;strokeWidth=1;shadow=0;dashed=0;shape=mxgraph.ios7ui.callout;strokeColor=none;fillColor=#0680FF;flipH=1;align=center;verticalAlign=top;fontSize=7;spacingLeft=2;fontColor=#ffffff;spacingTop=-2;whiteSpace=wrap;spacingRight=12;resizeWidth=1;" parent="1" vertex="1">
          <mxGeometry x="130.5" y="855.5" width="87.5" height="25" as="geometry">
            <mxPoint y="40" as="offset" />
          </mxGeometry>
        </mxCell>
        <mxCell id="wbXpezz0VNGxaIe4ll2v-107" value="" style="verticalLabelPosition=bottom;shadow=0;dashed=0;align=center;html=1;verticalAlign=top;strokeWidth=1;shape=mxgraph.mockup.containers.userMale;strokeColor=#666666;strokeColor2=#008cff;" parent="1" vertex="1">
          <mxGeometry x="63" y="813" width="30" height="30" as="geometry" />
        </mxCell>
        <mxCell id="wbXpezz0VNGxaIe4ll2v-108" value="" style="verticalLabelPosition=bottom;shadow=0;dashed=0;align=center;html=1;verticalAlign=top;strokeWidth=1;shape=mxgraph.mockup.containers.userFemale;strokeColor=#666666;strokeColor2=#008cff;" parent="1" vertex="1">
          <mxGeometry x="218" y="850.5" width="30" height="30" as="geometry" />
        </mxCell>
        <mxCell id="wbXpezz0VNGxaIe4ll2v-109" value="" style="html=1;strokeWidth=1;shadow=0;dashed=0;shape=mxgraph.ios7ui.callout;strokeColor=none;fillColor=#E7E6EC;align=left;verticalAlign=middle;fontSize=7;spacingLeft=17;fontColor=#000000;spacingTop=2;whiteSpace=wrap;resizeWidth=1;" parent="1" vertex="1">
          <mxGeometry x="93" y="898" width="90" height="20" as="geometry">
            <mxPoint x="5" y="15" as="offset" />
          </mxGeometry>
        </mxCell>
        <mxCell id="wbXpezz0VNGxaIe4ll2v-110" value="" style="verticalLabelPosition=bottom;shadow=0;dashed=0;align=center;html=1;verticalAlign=top;strokeWidth=1;shape=mxgraph.mockup.containers.userMale;strokeColor=#666666;strokeColor2=#008cff;" parent="1" vertex="1">
          <mxGeometry x="63" y="893" width="30" height="30" as="geometry" />
        </mxCell>
        <mxCell id="wbXpezz0VNGxaIe4ll2v-111" value="&lt;div style=&quot;text-align: justify&quot;&gt;&lt;br&gt;&lt;/div&gt;" style="html=1;strokeWidth=1;shadow=0;dashed=0;shape=mxgraph.ios7ui.callout;strokeColor=none;fillColor=#0680FF;flipH=1;align=center;verticalAlign=top;fontSize=7;spacingLeft=2;fontColor=#ffffff;spacingTop=-2;whiteSpace=wrap;spacingRight=12;resizeWidth=1;" parent="1" vertex="1">
          <mxGeometry x="130.5" y="933" width="87.5" height="25" as="geometry">
            <mxPoint y="40" as="offset" />
          </mxGeometry>
        </mxCell>
        <mxCell id="wbXpezz0VNGxaIe4ll2v-112" value="" style="verticalLabelPosition=bottom;shadow=0;dashed=0;align=center;html=1;verticalAlign=top;strokeWidth=1;shape=mxgraph.mockup.containers.userFemale;strokeColor=#666666;strokeColor2=#008cff;" parent="1" vertex="1">
          <mxGeometry x="218" y="928" width="30" height="30" as="geometry" />
        </mxCell>
        <mxCell id="wbXpezz0VNGxaIe4ll2v-113" value="xxxxxxxx" style="text;html=1;strokeColor=none;fillColor=none;align=center;verticalAlign=middle;whiteSpace=wrap;rounded=0;" parent="1" vertex="1">
          <mxGeometry x="110.5" y="818" width="60" height="20" as="geometry" />
        </mxCell>
        <mxCell id="wbXpezz0VNGxaIe4ll2v-114" value="xxxxxxxx" style="text;html=1;strokeColor=none;fillColor=none;align=center;verticalAlign=middle;whiteSpace=wrap;rounded=0;" parent="1" vertex="1">
          <mxGeometry x="140.5" y="860.5" width="60" height="20" as="geometry" />
        </mxCell>
        <mxCell id="wbXpezz0VNGxaIe4ll2v-115" value="xxxxxxxx" style="text;html=1;strokeColor=none;fillColor=none;align=center;verticalAlign=middle;whiteSpace=wrap;rounded=0;" parent="1" vertex="1">
          <mxGeometry x="110.5" y="898" width="60" height="20" as="geometry" />
        </mxCell>
        <mxCell id="wbXpezz0VNGxaIe4ll2v-116" value="xxxxxxxx" style="text;html=1;strokeColor=none;fillColor=none;align=center;verticalAlign=middle;whiteSpace=wrap;rounded=0;" parent="1" vertex="1">
          <mxGeometry x="140.5" y="938" width="60" height="20" as="geometry" />
        </mxCell>
        <mxCell id="wbXpezz0VNGxaIe4ll2v-117" value="" style="line;strokeWidth=1;html=1;" parent="1" vertex="1">
          <mxGeometry x="60.5" y="803" width="190" height="10" as="geometry" />
        </mxCell>
        <mxCell id="wbXpezz0VNGxaIe4ll2v-118" value="&lt;font style=&quot;font-weight: normal ; font-size: 13px&quot;&gt;联系人1&lt;/font&gt;" style="text;strokeColor=none;fillColor=none;html=1;fontSize=24;fontStyle=1;verticalAlign=middle;align=center;" parent="1" vertex="1">
          <mxGeometry x="120.5" y="777" width="70" height="30" as="geometry" />
        </mxCell>
        <mxCell id="wbXpezz0VNGxaIe4ll2v-119" value="&lt;span style=&quot;font-weight: normal&quot;&gt;&lt;font style=&quot;font-size: 18px&quot;&gt;...&lt;/font&gt;&lt;/span&gt;" style="text;strokeColor=none;fillColor=none;html=1;fontSize=24;fontStyle=1;verticalAlign=middle;align=center;" parent="1" vertex="1">
          <mxGeometry x="220.5" y="772" width="30" height="40" as="geometry" />
        </mxCell>
        <mxCell id="wbXpezz0VNGxaIe4ll2v-120" value="&lt;span style=&quot;font-weight: normal&quot;&gt;&lt;font style=&quot;font-size: 18px&quot;&gt;&amp;lt;&lt;/font&gt;&lt;/span&gt;" style="text;strokeColor=none;fillColor=none;html=1;fontSize=24;fontStyle=1;verticalAlign=middle;align=center;" parent="1" vertex="1">
          <mxGeometry x="60.5" y="773" width="30" height="40" as="geometry" />
        </mxCell>
        <mxCell id="wbXpezz0VNGxaIe4ll2v-122" value="" style="rounded=0;whiteSpace=wrap;html=1;" parent="1" vertex="1">
          <mxGeometry x="255.5" y="808" width="181" height="270" as="geometry" />
        </mxCell>
        <mxCell id="wbXpezz0VNGxaIe4ll2v-123" value="&lt;font style=&quot;font-size: 13px ; font-weight: normal&quot;&gt;时钟&lt;/font&gt;" style="text;strokeColor=none;fillColor=none;html=1;fontSize=24;fontStyle=1;verticalAlign=middle;align=center;" parent="1" vertex="1">
          <mxGeometry x="310.5" y="1069" width="70" height="30" as="geometry" />
        </mxCell>
        <mxCell id="wbXpezz0VNGxaIe4ll2v-124" value="" style="ellipse;whiteSpace=wrap;html=1;aspect=fixed;" parent="1" vertex="1">
          <mxGeometry x="261.5" y="818" width="168" height="168" as="geometry" />
        </mxCell>
        <mxCell id="wbXpezz0VNGxaIe4ll2v-125" value="" style="rounded=0;whiteSpace=wrap;html=1;" parent="1" vertex="1">
          <mxGeometry x="1042.5" y="72" width="60" height="320" as="geometry" />
        </mxCell>
        <mxCell id="wbXpezz0VNGxaIe4ll2v-126" value="" style="rounded=0;whiteSpace=wrap;html=1;" parent="1" vertex="1">
          <mxGeometry x="852.5" y="72" width="190" height="320" as="geometry" />
        </mxCell>
        <mxCell id="wbXpezz0VNGxaIe4ll2v-127" value="" style="verticalLabelPosition=bottom;verticalAlign=top;html=1;shadow=0;dashed=0;strokeWidth=1;shape=mxgraph.android.keyboard;" parent="1" vertex="1">
          <mxGeometry x="855" y="288" width="185" height="100" as="geometry" />
        </mxCell>
        <mxCell id="wbXpezz0VNGxaIe4ll2v-128" value="" style="html=1;strokeWidth=1;shadow=0;dashed=0;shape=mxgraph.ios7ui.callout;strokeColor=none;fillColor=#E7E6EC;align=left;verticalAlign=middle;fontSize=7;spacingLeft=17;fontColor=#000000;spacingTop=2;whiteSpace=wrap;resizeWidth=1;" parent="1" vertex="1">
          <mxGeometry x="885" y="107" width="90" height="20" as="geometry">
            <mxPoint x="5" y="15" as="offset" />
          </mxGeometry>
        </mxCell>
        <mxCell id="wbXpezz0VNGxaIe4ll2v-129" value="&lt;div style=&quot;text-align: justify&quot;&gt;&lt;br&gt;&lt;/div&gt;" style="html=1;strokeWidth=1;shadow=0;dashed=0;shape=mxgraph.ios7ui.callout;strokeColor=none;fillColor=#0680FF;flipH=1;align=center;verticalAlign=top;fontSize=7;spacingLeft=2;fontColor=#ffffff;spacingTop=-2;whiteSpace=wrap;spacingRight=12;resizeWidth=1;" parent="1" vertex="1">
          <mxGeometry x="922.5" y="144.5" width="87.5" height="25" as="geometry">
            <mxPoint y="40" as="offset" />
          </mxGeometry>
        </mxCell>
        <mxCell id="wbXpezz0VNGxaIe4ll2v-130" value="" style="verticalLabelPosition=bottom;shadow=0;dashed=0;align=center;html=1;verticalAlign=top;strokeWidth=1;shape=mxgraph.mockup.containers.userMale;strokeColor=#666666;strokeColor2=#008cff;" parent="1" vertex="1">
          <mxGeometry x="855" y="102" width="30" height="30" as="geometry" />
        </mxCell>
        <mxCell id="wbXpezz0VNGxaIe4ll2v-131" value="" style="verticalLabelPosition=bottom;shadow=0;dashed=0;align=center;html=1;verticalAlign=top;strokeWidth=1;shape=mxgraph.mockup.containers.userFemale;strokeColor=#666666;strokeColor2=#008cff;" parent="1" vertex="1">
          <mxGeometry x="1010" y="139.5" width="30" height="30" as="geometry" />
        </mxCell>
        <mxCell id="wbXpezz0VNGxaIe4ll2v-132" value="" style="html=1;strokeWidth=1;shadow=0;dashed=0;shape=mxgraph.ios7ui.callout;strokeColor=none;fillColor=#E7E6EC;align=left;verticalAlign=middle;fontSize=7;spacingLeft=17;fontColor=#000000;spacingTop=2;whiteSpace=wrap;resizeWidth=1;" parent="1" vertex="1">
          <mxGeometry x="885" y="187" width="90" height="20" as="geometry">
            <mxPoint x="5" y="15" as="offset" />
          </mxGeometry>
        </mxCell>
        <mxCell id="wbXpezz0VNGxaIe4ll2v-133" value="" style="verticalLabelPosition=bottom;shadow=0;dashed=0;align=center;html=1;verticalAlign=top;strokeWidth=1;shape=mxgraph.mockup.containers.userMale;strokeColor=#666666;strokeColor2=#008cff;" parent="1" vertex="1">
          <mxGeometry x="855" y="182" width="30" height="30" as="geometry" />
        </mxCell>
        <mxCell id="wbXpezz0VNGxaIe4ll2v-134" value="&lt;div style=&quot;text-align: justify&quot;&gt;&lt;br&gt;&lt;/div&gt;" style="html=1;strokeWidth=1;shadow=0;dashed=0;shape=mxgraph.ios7ui.callout;strokeColor=none;fillColor=#0680FF;flipH=1;align=center;verticalAlign=top;fontSize=7;spacingLeft=2;fontColor=#ffffff;spacingTop=-2;whiteSpace=wrap;spacingRight=12;resizeWidth=1;" parent="1" vertex="1">
          <mxGeometry x="922.5" y="222" width="87.5" height="25" as="geometry">
            <mxPoint y="40" as="offset" />
          </mxGeometry>
        </mxCell>
        <mxCell id="wbXpezz0VNGxaIe4ll2v-135" value="" style="verticalLabelPosition=bottom;shadow=0;dashed=0;align=center;html=1;verticalAlign=top;strokeWidth=1;shape=mxgraph.mockup.containers.userFemale;strokeColor=#666666;strokeColor2=#008cff;" parent="1" vertex="1">
          <mxGeometry x="1010" y="217" width="30" height="30" as="geometry" />
        </mxCell>
        <mxCell id="wbXpezz0VNGxaIe4ll2v-136" value="xxxxxxxx" style="text;html=1;strokeColor=none;fillColor=none;align=center;verticalAlign=middle;whiteSpace=wrap;rounded=0;" parent="1" vertex="1">
          <mxGeometry x="902.5" y="107" width="60" height="20" as="geometry" />
        </mxCell>
        <mxCell id="wbXpezz0VNGxaIe4ll2v-137" value="xxxxxxxx" style="text;html=1;strokeColor=none;fillColor=none;align=center;verticalAlign=middle;whiteSpace=wrap;rounded=0;" parent="1" vertex="1">
          <mxGeometry x="932.5" y="149.5" width="60" height="20" as="geometry" />
        </mxCell>
        <mxCell id="wbXpezz0VNGxaIe4ll2v-138" value="xxxxxxxx" style="text;html=1;strokeColor=none;fillColor=none;align=center;verticalAlign=middle;whiteSpace=wrap;rounded=0;" parent="1" vertex="1">
          <mxGeometry x="902.5" y="187" width="60" height="20" as="geometry" />
        </mxCell>
        <mxCell id="wbXpezz0VNGxaIe4ll2v-139" value="xxxxxxxx" style="text;html=1;strokeColor=none;fillColor=none;align=center;verticalAlign=middle;whiteSpace=wrap;rounded=0;" parent="1" vertex="1">
          <mxGeometry x="932.5" y="227" width="60" height="20" as="geometry" />
        </mxCell>
        <mxCell id="wbXpezz0VNGxaIe4ll2v-140" value="" style="line;strokeWidth=1;html=1;" parent="1" vertex="1">
          <mxGeometry x="852.5" y="92" width="190" height="10" as="geometry" />
        </mxCell>
        <mxCell id="wbXpezz0VNGxaIe4ll2v-141" value="&lt;font style=&quot;font-weight: normal ; font-size: 13px&quot;&gt;联系人1&lt;/font&gt;" style="text;strokeColor=none;fillColor=none;html=1;fontSize=24;fontStyle=1;verticalAlign=middle;align=center;" parent="1" vertex="1">
          <mxGeometry x="912.5" y="66" width="70" height="30" as="geometry" />
        </mxCell>
        <mxCell id="wbXpezz0VNGxaIe4ll2v-142" value="&lt;span style=&quot;font-weight: normal&quot;&gt;&lt;font style=&quot;font-size: 18px&quot;&gt;...&lt;/font&gt;&lt;/span&gt;" style="text;strokeColor=none;fillColor=none;html=1;fontSize=24;fontStyle=1;verticalAlign=middle;align=center;" parent="1" vertex="1">
          <mxGeometry x="1012.5" y="61" width="30" height="40" as="geometry" />
        </mxCell>
        <mxCell id="wbXpezz0VNGxaIe4ll2v-143" value="&lt;span style=&quot;font-weight: normal&quot;&gt;&lt;font style=&quot;font-size: 18px&quot;&gt;&amp;lt;&lt;/font&gt;&lt;/span&gt;" style="text;strokeColor=none;fillColor=none;html=1;fontSize=24;fontStyle=1;verticalAlign=middle;align=center;" parent="1" vertex="1">
          <mxGeometry x="852.5" y="62" width="30" height="40" as="geometry" />
        </mxCell>
        <mxCell id="wbXpezz0VNGxaIe4ll2v-148" value="App1" style="rounded=0;whiteSpace=wrap;html=1;aspect=fixed;" parent="1" vertex="1">
          <mxGeometry x="1054.12" y="82" width="35" height="35" as="geometry" />
        </mxCell>
        <mxCell id="wbXpezz0VNGxaIe4ll2v-152" value="App2" style="rounded=0;whiteSpace=wrap;html=1;aspect=fixed;" parent="1" vertex="1">
          <mxGeometry x="1054.12" y="132" width="35" height="35" as="geometry" />
        </mxCell>
        <mxCell id="wbXpezz0VNGxaIe4ll2v-153" value="App3" style="rounded=0;whiteSpace=wrap;html=1;aspect=fixed;" parent="1" vertex="1">
          <mxGeometry x="1054.12" y="182" width="35" height="35" as="geometry" />
        </mxCell>
        <mxCell id="wbXpezz0VNGxaIe4ll2v-154" value="App4" style="rounded=0;whiteSpace=wrap;html=1;aspect=fixed;" parent="1" vertex="1">
          <mxGeometry x="1053.75" y="232" width="35" height="35" as="geometry" />
        </mxCell>
        <mxCell id="wbXpezz0VNGxaIe4ll2v-155" value="App5" style="rounded=0;whiteSpace=wrap;html=1;aspect=fixed;" parent="1" vertex="1">
          <mxGeometry x="1053.75" y="282" width="35" height="35" as="geometry" />
        </mxCell>
        <mxCell id="wbXpezz0VNGxaIe4ll2v-156" value="App6" style="rounded=0;whiteSpace=wrap;html=1;aspect=fixed;" parent="1" vertex="1">
          <mxGeometry x="1053.75" y="332" width="35" height="35" as="geometry" />
        </mxCell>
        <mxCell id="wbXpezz0VNGxaIe4ll2v-157" value="" style="rounded=0;whiteSpace=wrap;html=1;" parent="1" vertex="1">
          <mxGeometry x="1323.5" y="77" width="105" height="320" as="geometry" />
        </mxCell>
        <mxCell id="wbXpezz0VNGxaIe4ll2v-158" value="" style="rounded=0;whiteSpace=wrap;html=1;" parent="1" vertex="1">
          <mxGeometry x="1133.5" y="77" width="190" height="320" as="geometry" />
        </mxCell>
        <mxCell id="wbXpezz0VNGxaIe4ll2v-159" value="" style="verticalLabelPosition=bottom;verticalAlign=top;html=1;shadow=0;dashed=0;strokeWidth=1;shape=mxgraph.android.keyboard;" parent="1" vertex="1">
          <mxGeometry x="1136" y="293" width="185" height="100" as="geometry" />
        </mxCell>
        <mxCell id="wbXpezz0VNGxaIe4ll2v-160" value="" style="html=1;strokeWidth=1;shadow=0;dashed=0;shape=mxgraph.ios7ui.callout;strokeColor=none;fillColor=#E7E6EC;align=left;verticalAlign=middle;fontSize=7;spacingLeft=17;fontColor=#000000;spacingTop=2;whiteSpace=wrap;resizeWidth=1;" parent="1" vertex="1">
          <mxGeometry x="1166" y="112" width="90" height="20" as="geometry">
            <mxPoint x="5" y="15" as="offset" />
          </mxGeometry>
        </mxCell>
        <mxCell id="wbXpezz0VNGxaIe4ll2v-161" value="&lt;div style=&quot;text-align: justify&quot;&gt;&lt;br&gt;&lt;/div&gt;" style="html=1;strokeWidth=1;shadow=0;dashed=0;shape=mxgraph.ios7ui.callout;strokeColor=none;fillColor=#0680FF;flipH=1;align=center;verticalAlign=top;fontSize=7;spacingLeft=2;fontColor=#ffffff;spacingTop=-2;whiteSpace=wrap;spacingRight=12;resizeWidth=1;" parent="1" vertex="1">
          <mxGeometry x="1203.5" y="149.5" width="87.5" height="25" as="geometry">
            <mxPoint y="40" as="offset" />
          </mxGeometry>
        </mxCell>
        <mxCell id="wbXpezz0VNGxaIe4ll2v-162" value="" style="verticalLabelPosition=bottom;shadow=0;dashed=0;align=center;html=1;verticalAlign=top;strokeWidth=1;shape=mxgraph.mockup.containers.userMale;strokeColor=#666666;strokeColor2=#008cff;" parent="1" vertex="1">
          <mxGeometry x="1136" y="107" width="30" height="30" as="geometry" />
        </mxCell>
        <mxCell id="wbXpezz0VNGxaIe4ll2v-163" value="" style="verticalLabelPosition=bottom;shadow=0;dashed=0;align=center;html=1;verticalAlign=top;strokeWidth=1;shape=mxgraph.mockup.containers.userFemale;strokeColor=#666666;strokeColor2=#008cff;" parent="1" vertex="1">
          <mxGeometry x="1291" y="144.5" width="30" height="30" as="geometry" />
        </mxCell>
        <mxCell id="wbXpezz0VNGxaIe4ll2v-164" value="" style="html=1;strokeWidth=1;shadow=0;dashed=0;shape=mxgraph.ios7ui.callout;strokeColor=none;fillColor=#E7E6EC;align=left;verticalAlign=middle;fontSize=7;spacingLeft=17;fontColor=#000000;spacingTop=2;whiteSpace=wrap;resizeWidth=1;" parent="1" vertex="1">
          <mxGeometry x="1166" y="192" width="90" height="20" as="geometry">
            <mxPoint x="5" y="15" as="offset" />
          </mxGeometry>
        </mxCell>
        <mxCell id="wbXpezz0VNGxaIe4ll2v-165" value="" style="verticalLabelPosition=bottom;shadow=0;dashed=0;align=center;html=1;verticalAlign=top;strokeWidth=1;shape=mxgraph.mockup.containers.userMale;strokeColor=#666666;strokeColor2=#008cff;" parent="1" vertex="1">
          <mxGeometry x="1136" y="187" width="30" height="30" as="geometry" />
        </mxCell>
        <mxCell id="wbXpezz0VNGxaIe4ll2v-166" value="&lt;div style=&quot;text-align: justify&quot;&gt;&lt;br&gt;&lt;/div&gt;" style="html=1;strokeWidth=1;shadow=0;dashed=0;shape=mxgraph.ios7ui.callout;strokeColor=none;fillColor=#0680FF;flipH=1;align=center;verticalAlign=top;fontSize=7;spacingLeft=2;fontColor=#ffffff;spacingTop=-2;whiteSpace=wrap;spacingRight=12;resizeWidth=1;" parent="1" vertex="1">
          <mxGeometry x="1203.5" y="227" width="87.5" height="25" as="geometry">
            <mxPoint y="40" as="offset" />
          </mxGeometry>
        </mxCell>
        <mxCell id="wbXpezz0VNGxaIe4ll2v-167" value="" style="verticalLabelPosition=bottom;shadow=0;dashed=0;align=center;html=1;verticalAlign=top;strokeWidth=1;shape=mxgraph.mockup.containers.userFemale;strokeColor=#666666;strokeColor2=#008cff;" parent="1" vertex="1">
          <mxGeometry x="1291" y="222" width="30" height="30" as="geometry" />
        </mxCell>
        <mxCell id="wbXpezz0VNGxaIe4ll2v-168" value="xxxxxxxx" style="text;html=1;strokeColor=none;fillColor=none;align=center;verticalAlign=middle;whiteSpace=wrap;rounded=0;" parent="1" vertex="1">
          <mxGeometry x="1183.5" y="112" width="60" height="20" as="geometry" />
        </mxCell>
        <mxCell id="wbXpezz0VNGxaIe4ll2v-169" value="xxxxxxxx" style="text;html=1;strokeColor=none;fillColor=none;align=center;verticalAlign=middle;whiteSpace=wrap;rounded=0;" parent="1" vertex="1">
          <mxGeometry x="1213.5" y="154.5" width="60" height="20" as="geometry" />
        </mxCell>
        <mxCell id="wbXpezz0VNGxaIe4ll2v-170" value="xxxxxxxx" style="text;html=1;strokeColor=none;fillColor=none;align=center;verticalAlign=middle;whiteSpace=wrap;rounded=0;" parent="1" vertex="1">
          <mxGeometry x="1183.5" y="192" width="60" height="20" as="geometry" />
        </mxCell>
        <mxCell id="wbXpezz0VNGxaIe4ll2v-171" value="xxxxxxxx" style="text;html=1;strokeColor=none;fillColor=none;align=center;verticalAlign=middle;whiteSpace=wrap;rounded=0;" parent="1" vertex="1">
          <mxGeometry x="1213.5" y="232" width="60" height="20" as="geometry" />
        </mxCell>
        <mxCell id="wbXpezz0VNGxaIe4ll2v-172" value="" style="line;strokeWidth=1;html=1;" parent="1" vertex="1">
          <mxGeometry x="1133.5" y="97" width="190" height="10" as="geometry" />
        </mxCell>
        <mxCell id="wbXpezz0VNGxaIe4ll2v-173" value="&lt;font style=&quot;font-weight: normal ; font-size: 13px&quot;&gt;联系人1&lt;/font&gt;" style="text;strokeColor=none;fillColor=none;html=1;fontSize=24;fontStyle=1;verticalAlign=middle;align=center;" parent="1" vertex="1">
          <mxGeometry x="1193.5" y="71" width="70" height="30" as="geometry" />
        </mxCell>
        <mxCell id="wbXpezz0VNGxaIe4ll2v-174" value="&lt;span style=&quot;font-weight: normal&quot;&gt;&lt;font style=&quot;font-size: 18px&quot;&gt;...&lt;/font&gt;&lt;/span&gt;" style="text;strokeColor=none;fillColor=none;html=1;fontSize=24;fontStyle=1;verticalAlign=middle;align=center;" parent="1" vertex="1">
          <mxGeometry x="1293.5" y="66" width="30" height="40" as="geometry" />
        </mxCell>
        <mxCell id="wbXpezz0VNGxaIe4ll2v-175" value="&lt;span style=&quot;font-weight: normal&quot;&gt;&lt;font style=&quot;font-size: 18px&quot;&gt;&amp;lt;&lt;/font&gt;&lt;/span&gt;" style="text;strokeColor=none;fillColor=none;html=1;fontSize=24;fontStyle=1;verticalAlign=middle;align=center;" parent="1" vertex="1">
          <mxGeometry x="1133.5" y="67" width="30" height="40" as="geometry" />
        </mxCell>
        <mxCell id="wbXpezz0VNGxaIe4ll2v-176" value="App1" style="rounded=0;whiteSpace=wrap;html=1;aspect=fixed;" parent="1" vertex="1">
          <mxGeometry x="1335.12" y="87" width="35" height="35" as="geometry" />
        </mxCell>
        <mxCell id="wbXpezz0VNGxaIe4ll2v-177" value="App2" style="rounded=0;whiteSpace=wrap;html=1;aspect=fixed;" parent="1" vertex="1">
          <mxGeometry x="1335.12" y="137" width="35" height="35" as="geometry" />
        </mxCell>
        <mxCell id="wbXpezz0VNGxaIe4ll2v-178" value="App3" style="rounded=0;whiteSpace=wrap;html=1;aspect=fixed;" parent="1" vertex="1">
          <mxGeometry x="1335.12" y="187" width="35" height="35" as="geometry" />
        </mxCell>
        <mxCell id="wbXpezz0VNGxaIe4ll2v-179" value="App4" style="rounded=0;whiteSpace=wrap;html=1;aspect=fixed;" parent="1" vertex="1">
          <mxGeometry x="1334.75" y="237" width="35" height="35" as="geometry" />
        </mxCell>
        <mxCell id="wbXpezz0VNGxaIe4ll2v-180" value="App5" style="rounded=0;whiteSpace=wrap;html=1;aspect=fixed;" parent="1" vertex="1">
          <mxGeometry x="1334.75" y="287" width="35" height="35" as="geometry" />
        </mxCell>
        <mxCell id="wbXpezz0VNGxaIe4ll2v-181" value="App6" style="rounded=0;whiteSpace=wrap;html=1;aspect=fixed;" parent="1" vertex="1">
          <mxGeometry x="1334.75" y="337" width="35" height="35" as="geometry" />
        </mxCell>
        <mxCell id="wbXpezz0VNGxaIe4ll2v-182" value="App7" style="rounded=0;whiteSpace=wrap;html=1;aspect=fixed;" parent="1" vertex="1">
          <mxGeometry x="1382.5" y="87" width="35" height="35" as="geometry" />
        </mxCell>
        <mxCell id="wbXpezz0VNGxaIe4ll2v-183" value="App8" style="rounded=0;whiteSpace=wrap;html=1;aspect=fixed;" parent="1" vertex="1">
          <mxGeometry x="1382.5" y="137" width="35" height="35" as="geometry" />
        </mxCell>
        <mxCell id="wbXpezz0VNGxaIe4ll2v-184" value="App9" style="rounded=0;whiteSpace=wrap;html=1;aspect=fixed;" parent="1" vertex="1">
          <mxGeometry x="1382.5" y="187" width="35" height="35" as="geometry" />
        </mxCell>
        <mxCell id="wbXpezz0VNGxaIe4ll2v-185" value="" style="rounded=0;whiteSpace=wrap;html=1;" parent="1" vertex="1">
          <mxGeometry x="1080" y="461" width="120" height="320" as="geometry" />
        </mxCell>
        <mxCell id="wbXpezz0VNGxaIe4ll2v-186" value="" style="rounded=0;whiteSpace=wrap;html=1;" parent="1" vertex="1">
          <mxGeometry x="890" y="461" width="190" height="320" as="geometry" />
        </mxCell>
        <mxCell id="wbXpezz0VNGxaIe4ll2v-187" value="" style="verticalLabelPosition=bottom;verticalAlign=top;html=1;shadow=0;dashed=0;strokeWidth=1;shape=mxgraph.android.keyboard;" parent="1" vertex="1">
          <mxGeometry x="892.5" y="677" width="185" height="100" as="geometry" />
        </mxCell>
        <mxCell id="wbXpezz0VNGxaIe4ll2v-188" value="" style="html=1;strokeWidth=1;shadow=0;dashed=0;shape=mxgraph.ios7ui.callout;strokeColor=none;fillColor=#E7E6EC;align=left;verticalAlign=middle;fontSize=7;spacingLeft=17;fontColor=#000000;spacingTop=2;whiteSpace=wrap;resizeWidth=1;" parent="1" vertex="1">
          <mxGeometry x="922.5" y="496" width="90" height="20" as="geometry">
            <mxPoint x="5" y="15" as="offset" />
          </mxGeometry>
        </mxCell>
        <mxCell id="wbXpezz0VNGxaIe4ll2v-189" value="&lt;div style=&quot;text-align: justify&quot;&gt;&lt;br&gt;&lt;/div&gt;" style="html=1;strokeWidth=1;shadow=0;dashed=0;shape=mxgraph.ios7ui.callout;strokeColor=none;fillColor=#0680FF;flipH=1;align=center;verticalAlign=top;fontSize=7;spacingLeft=2;fontColor=#ffffff;spacingTop=-2;whiteSpace=wrap;spacingRight=12;resizeWidth=1;" parent="1" vertex="1">
          <mxGeometry x="960" y="533.5" width="87.5" height="25" as="geometry">
            <mxPoint y="40" as="offset" />
          </mxGeometry>
        </mxCell>
        <mxCell id="wbXpezz0VNGxaIe4ll2v-190" value="" style="verticalLabelPosition=bottom;shadow=0;dashed=0;align=center;html=1;verticalAlign=top;strokeWidth=1;shape=mxgraph.mockup.containers.userMale;strokeColor=#666666;strokeColor2=#008cff;" parent="1" vertex="1">
          <mxGeometry x="892.5" y="491" width="30" height="30" as="geometry" />
        </mxCell>
        <mxCell id="wbXpezz0VNGxaIe4ll2v-191" value="" style="verticalLabelPosition=bottom;shadow=0;dashed=0;align=center;html=1;verticalAlign=top;strokeWidth=1;shape=mxgraph.mockup.containers.userFemale;strokeColor=#666666;strokeColor2=#008cff;" parent="1" vertex="1">
          <mxGeometry x="1047.5" y="528.5" width="30" height="30" as="geometry" />
        </mxCell>
        <mxCell id="wbXpezz0VNGxaIe4ll2v-192" value="" style="html=1;strokeWidth=1;shadow=0;dashed=0;shape=mxgraph.ios7ui.callout;strokeColor=none;fillColor=#E7E6EC;align=left;verticalAlign=middle;fontSize=7;spacingLeft=17;fontColor=#000000;spacingTop=2;whiteSpace=wrap;resizeWidth=1;" parent="1" vertex="1">
          <mxGeometry x="922.5" y="576" width="90" height="20" as="geometry">
            <mxPoint x="5" y="15" as="offset" />
          </mxGeometry>
        </mxCell>
        <mxCell id="wbXpezz0VNGxaIe4ll2v-193" value="" style="verticalLabelPosition=bottom;shadow=0;dashed=0;align=center;html=1;verticalAlign=top;strokeWidth=1;shape=mxgraph.mockup.containers.userMale;strokeColor=#666666;strokeColor2=#008cff;" parent="1" vertex="1">
          <mxGeometry x="892.5" y="571" width="30" height="30" as="geometry" />
        </mxCell>
        <mxCell id="wbXpezz0VNGxaIe4ll2v-194" value="&lt;div style=&quot;text-align: justify&quot;&gt;&lt;br&gt;&lt;/div&gt;" style="html=1;strokeWidth=1;shadow=0;dashed=0;shape=mxgraph.ios7ui.callout;strokeColor=none;fillColor=#0680FF;flipH=1;align=center;verticalAlign=top;fontSize=7;spacingLeft=2;fontColor=#ffffff;spacingTop=-2;whiteSpace=wrap;spacingRight=12;resizeWidth=1;" parent="1" vertex="1">
          <mxGeometry x="960" y="611" width="87.5" height="25" as="geometry">
            <mxPoint y="40" as="offset" />
          </mxGeometry>
        </mxCell>
        <mxCell id="wbXpezz0VNGxaIe4ll2v-195" value="" style="verticalLabelPosition=bottom;shadow=0;dashed=0;align=center;html=1;verticalAlign=top;strokeWidth=1;shape=mxgraph.mockup.containers.userFemale;strokeColor=#666666;strokeColor2=#008cff;" parent="1" vertex="1">
          <mxGeometry x="1047.5" y="606" width="30" height="30" as="geometry" />
        </mxCell>
        <mxCell id="wbXpezz0VNGxaIe4ll2v-196" value="xxxxxxxx" style="text;html=1;strokeColor=none;fillColor=none;align=center;verticalAlign=middle;whiteSpace=wrap;rounded=0;" parent="1" vertex="1">
          <mxGeometry x="940" y="496" width="60" height="20" as="geometry" />
        </mxCell>
        <mxCell id="wbXpezz0VNGxaIe4ll2v-197" value="xxxxxxxx" style="text;html=1;strokeColor=none;fillColor=none;align=center;verticalAlign=middle;whiteSpace=wrap;rounded=0;" parent="1" vertex="1">
          <mxGeometry x="970" y="538.5" width="60" height="20" as="geometry" />
        </mxCell>
        <mxCell id="wbXpezz0VNGxaIe4ll2v-198" value="xxxxxxxx" style="text;html=1;strokeColor=none;fillColor=none;align=center;verticalAlign=middle;whiteSpace=wrap;rounded=0;" parent="1" vertex="1">
          <mxGeometry x="940" y="576" width="60" height="20" as="geometry" />
        </mxCell>
        <mxCell id="wbXpezz0VNGxaIe4ll2v-199" value="xxxxxxxx" style="text;html=1;strokeColor=none;fillColor=none;align=center;verticalAlign=middle;whiteSpace=wrap;rounded=0;" parent="1" vertex="1">
          <mxGeometry x="970" y="616" width="60" height="20" as="geometry" />
        </mxCell>
        <mxCell id="wbXpezz0VNGxaIe4ll2v-200" value="" style="line;strokeWidth=1;html=1;" parent="1" vertex="1">
          <mxGeometry x="890" y="481" width="190" height="10" as="geometry" />
        </mxCell>
        <mxCell id="wbXpezz0VNGxaIe4ll2v-201" value="&lt;font style=&quot;font-weight: normal ; font-size: 13px&quot;&gt;联系人1&lt;/font&gt;" style="text;strokeColor=none;fillColor=none;html=1;fontSize=24;fontStyle=1;verticalAlign=middle;align=center;" parent="1" vertex="1">
          <mxGeometry x="950" y="455" width="70" height="30" as="geometry" />
        </mxCell>
        <mxCell id="wbXpezz0VNGxaIe4ll2v-202" value="&lt;span style=&quot;font-weight: normal&quot;&gt;&lt;font style=&quot;font-size: 18px&quot;&gt;&amp;lt;&lt;/font&gt;&lt;/span&gt;" style="text;strokeColor=none;fillColor=none;html=1;fontSize=24;fontStyle=1;verticalAlign=middle;align=center;" parent="1" vertex="1">
          <mxGeometry x="890" y="451" width="30" height="40" as="geometry" />
        </mxCell>
        <mxCell id="wbXpezz0VNGxaIe4ll2v-205" value="App1&lt;br&gt;小组件（2*2）" style="rounded=0;whiteSpace=wrap;html=1;aspect=fixed;" parent="1" vertex="1">
          <mxGeometry x="1086" y="472.5" width="111" height="111" as="geometry" />
        </mxCell>
        <mxCell id="wbXpezz0VNGxaIe4ll2v-206" value="App2&lt;br&gt;小组件（2*2）" style="rounded=0;whiteSpace=wrap;html=1;aspect=fixed;" parent="1" vertex="1">
          <mxGeometry x="1086" y="596" width="111" height="111" as="geometry" />
        </mxCell>
        <mxCell id="wbXpezz0VNGxaIe4ll2v-207" value="" style="rounded=0;whiteSpace=wrap;html=1;" parent="1" vertex="1">
          <mxGeometry x="1033" y="829" width="190" height="320" as="geometry" />
        </mxCell>
        <mxCell id="wbXpezz0VNGxaIe4ll2v-208" value="" style="rounded=0;whiteSpace=wrap;html=1;" parent="1" vertex="1">
          <mxGeometry x="843" y="829" width="190" height="320" as="geometry" />
        </mxCell>
        <mxCell id="wbXpezz0VNGxaIe4ll2v-209" value="" style="verticalLabelPosition=bottom;verticalAlign=top;html=1;shadow=0;dashed=0;strokeWidth=1;shape=mxgraph.android.keyboard;" parent="1" vertex="1">
          <mxGeometry x="845.5" y="1045" width="185" height="100" as="geometry" />
        </mxCell>
        <mxCell id="wbXpezz0VNGxaIe4ll2v-210" value="" style="html=1;strokeWidth=1;shadow=0;dashed=0;shape=mxgraph.ios7ui.callout;strokeColor=none;fillColor=#E7E6EC;align=left;verticalAlign=middle;fontSize=7;spacingLeft=17;fontColor=#000000;spacingTop=2;whiteSpace=wrap;resizeWidth=1;" parent="1" vertex="1">
          <mxGeometry x="875.5" y="864" width="90" height="20" as="geometry">
            <mxPoint x="5" y="15" as="offset" />
          </mxGeometry>
        </mxCell>
        <mxCell id="wbXpezz0VNGxaIe4ll2v-211" value="&lt;div style=&quot;text-align: justify&quot;&gt;&lt;br&gt;&lt;/div&gt;" style="html=1;strokeWidth=1;shadow=0;dashed=0;shape=mxgraph.ios7ui.callout;strokeColor=none;fillColor=#0680FF;flipH=1;align=center;verticalAlign=top;fontSize=7;spacingLeft=2;fontColor=#ffffff;spacingTop=-2;whiteSpace=wrap;spacingRight=12;resizeWidth=1;" parent="1" vertex="1">
          <mxGeometry x="913" y="901.5" width="87.5" height="25" as="geometry">
            <mxPoint y="40" as="offset" />
          </mxGeometry>
        </mxCell>
        <mxCell id="wbXpezz0VNGxaIe4ll2v-212" value="" style="verticalLabelPosition=bottom;shadow=0;dashed=0;align=center;html=1;verticalAlign=top;strokeWidth=1;shape=mxgraph.mockup.containers.userMale;strokeColor=#666666;strokeColor2=#008cff;" parent="1" vertex="1">
          <mxGeometry x="845.5" y="859" width="30" height="30" as="geometry" />
        </mxCell>
        <mxCell id="wbXpezz0VNGxaIe4ll2v-213" value="" style="verticalLabelPosition=bottom;shadow=0;dashed=0;align=center;html=1;verticalAlign=top;strokeWidth=1;shape=mxgraph.mockup.containers.userFemale;strokeColor=#666666;strokeColor2=#008cff;" parent="1" vertex="1">
          <mxGeometry x="1000.5" y="896.5" width="30" height="30" as="geometry" />
        </mxCell>
        <mxCell id="wbXpezz0VNGxaIe4ll2v-214" value="" style="html=1;strokeWidth=1;shadow=0;dashed=0;shape=mxgraph.ios7ui.callout;strokeColor=none;fillColor=#E7E6EC;align=left;verticalAlign=middle;fontSize=7;spacingLeft=17;fontColor=#000000;spacingTop=2;whiteSpace=wrap;resizeWidth=1;" parent="1" vertex="1">
          <mxGeometry x="875.5" y="944" width="90" height="20" as="geometry">
            <mxPoint x="5" y="15" as="offset" />
          </mxGeometry>
        </mxCell>
        <mxCell id="wbXpezz0VNGxaIe4ll2v-215" value="" style="verticalLabelPosition=bottom;shadow=0;dashed=0;align=center;html=1;verticalAlign=top;strokeWidth=1;shape=mxgraph.mockup.containers.userMale;strokeColor=#666666;strokeColor2=#008cff;" parent="1" vertex="1">
          <mxGeometry x="845.5" y="939" width="30" height="30" as="geometry" />
        </mxCell>
        <mxCell id="wbXpezz0VNGxaIe4ll2v-216" value="&lt;div style=&quot;text-align: justify&quot;&gt;&lt;br&gt;&lt;/div&gt;" style="html=1;strokeWidth=1;shadow=0;dashed=0;shape=mxgraph.ios7ui.callout;strokeColor=none;fillColor=#0680FF;flipH=1;align=center;verticalAlign=top;fontSize=7;spacingLeft=2;fontColor=#ffffff;spacingTop=-2;whiteSpace=wrap;spacingRight=12;resizeWidth=1;" parent="1" vertex="1">
          <mxGeometry x="913" y="979" width="87.5" height="25" as="geometry">
            <mxPoint y="40" as="offset" />
          </mxGeometry>
        </mxCell>
        <mxCell id="wbXpezz0VNGxaIe4ll2v-217" value="" style="verticalLabelPosition=bottom;shadow=0;dashed=0;align=center;html=1;verticalAlign=top;strokeWidth=1;shape=mxgraph.mockup.containers.userFemale;strokeColor=#666666;strokeColor2=#008cff;" parent="1" vertex="1">
          <mxGeometry x="1000.5" y="974" width="30" height="30" as="geometry" />
        </mxCell>
        <mxCell id="wbXpezz0VNGxaIe4ll2v-218" value="xxxxxxxx" style="text;html=1;strokeColor=none;fillColor=none;align=center;verticalAlign=middle;whiteSpace=wrap;rounded=0;" parent="1" vertex="1">
          <mxGeometry x="893" y="864" width="60" height="20" as="geometry" />
        </mxCell>
        <mxCell id="wbXpezz0VNGxaIe4ll2v-219" value="xxxxxxxx" style="text;html=1;strokeColor=none;fillColor=none;align=center;verticalAlign=middle;whiteSpace=wrap;rounded=0;" parent="1" vertex="1">
          <mxGeometry x="923" y="906.5" width="60" height="20" as="geometry" />
        </mxCell>
        <mxCell id="wbXpezz0VNGxaIe4ll2v-220" value="xxxxxxxx" style="text;html=1;strokeColor=none;fillColor=none;align=center;verticalAlign=middle;whiteSpace=wrap;rounded=0;" parent="1" vertex="1">
          <mxGeometry x="893" y="944" width="60" height="20" as="geometry" />
        </mxCell>
        <mxCell id="wbXpezz0VNGxaIe4ll2v-221" value="xxxxxxxx" style="text;html=1;strokeColor=none;fillColor=none;align=center;verticalAlign=middle;whiteSpace=wrap;rounded=0;" parent="1" vertex="1">
          <mxGeometry x="923" y="984" width="60" height="20" as="geometry" />
        </mxCell>
        <mxCell id="wbXpezz0VNGxaIe4ll2v-222" value="" style="line;strokeWidth=1;html=1;" parent="1" vertex="1">
          <mxGeometry x="843" y="849" width="190" height="10" as="geometry" />
        </mxCell>
        <mxCell id="wbXpezz0VNGxaIe4ll2v-223" value="&lt;font style=&quot;font-weight: normal ; font-size: 13px&quot;&gt;联系人1&lt;/font&gt;" style="text;strokeColor=none;fillColor=none;html=1;fontSize=24;fontStyle=1;verticalAlign=middle;align=center;" parent="1" vertex="1">
          <mxGeometry x="903" y="823" width="70" height="30" as="geometry" />
        </mxCell>
        <mxCell id="wbXpezz0VNGxaIe4ll2v-224" value="&lt;span style=&quot;font-weight: normal&quot;&gt;&lt;font style=&quot;font-size: 18px&quot;&gt;...&lt;/font&gt;&lt;/span&gt;" style="text;strokeColor=none;fillColor=none;html=1;fontSize=24;fontStyle=1;verticalAlign=middle;align=center;" parent="1" vertex="1">
          <mxGeometry x="1003" y="818" width="30" height="40" as="geometry" />
        </mxCell>
        <mxCell id="wbXpezz0VNGxaIe4ll2v-225" value="&lt;span style=&quot;font-weight: normal&quot;&gt;&lt;font style=&quot;font-size: 18px&quot;&gt;&amp;lt;&lt;/font&gt;&lt;/span&gt;" style="text;strokeColor=none;fillColor=none;html=1;fontSize=24;fontStyle=1;verticalAlign=middle;align=center;" parent="1" vertex="1">
          <mxGeometry x="843" y="819" width="30" height="40" as="geometry" />
        </mxCell>
        <mxCell id="wbXpezz0VNGxaIe4ll2v-228" value="&lt;span&gt;App1&lt;/span&gt;&lt;br&gt;&lt;span&gt;小组件（4*2）&lt;/span&gt;" style="rounded=0;whiteSpace=wrap;html=1;" parent="1" vertex="1">
          <mxGeometry x="1036.5" y="858" width="183" height="97.5" as="geometry" />
        </mxCell>
        <mxCell id="wbXpezz0VNGxaIe4ll2v-229" value="&lt;span&gt;App2&lt;/span&gt;&lt;br&gt;&lt;span&gt;小组件（4*2）&lt;/span&gt;" style="rounded=0;whiteSpace=wrap;html=1;" parent="1" vertex="1">
          <mxGeometry x="1036.5" y="979" width="183" height="99.5" as="geometry" />
        </mxCell>
        <mxCell id="wbXpezz0VNGxaIe4ll2v-230" value="" style="rounded=0;whiteSpace=wrap;html=1;" parent="1" vertex="1">
          <mxGeometry x="1431" y="832" width="190" height="320" as="geometry" />
        </mxCell>
        <mxCell id="wbXpezz0VNGxaIe4ll2v-231" value="" style="rounded=0;whiteSpace=wrap;html=1;" parent="1" vertex="1">
          <mxGeometry x="1241" y="832" width="190" height="320" as="geometry" />
        </mxCell>
        <mxCell id="wbXpezz0VNGxaIe4ll2v-232" value="" style="verticalLabelPosition=bottom;verticalAlign=top;html=1;shadow=0;dashed=0;strokeWidth=1;shape=mxgraph.android.keyboard;" parent="1" vertex="1">
          <mxGeometry x="1243.5" y="1048" width="185" height="100" as="geometry" />
        </mxCell>
        <mxCell id="wbXpezz0VNGxaIe4ll2v-233" value="" style="html=1;strokeWidth=1;shadow=0;dashed=0;shape=mxgraph.ios7ui.callout;strokeColor=none;fillColor=#E7E6EC;align=left;verticalAlign=middle;fontSize=7;spacingLeft=17;fontColor=#000000;spacingTop=2;whiteSpace=wrap;resizeWidth=1;" parent="1" vertex="1">
          <mxGeometry x="1273.5" y="867" width="90" height="20" as="geometry">
            <mxPoint x="5" y="15" as="offset" />
          </mxGeometry>
        </mxCell>
        <mxCell id="wbXpezz0VNGxaIe4ll2v-234" value="&lt;div style=&quot;text-align: justify&quot;&gt;&lt;br&gt;&lt;/div&gt;" style="html=1;strokeWidth=1;shadow=0;dashed=0;shape=mxgraph.ios7ui.callout;strokeColor=none;fillColor=#0680FF;flipH=1;align=center;verticalAlign=top;fontSize=7;spacingLeft=2;fontColor=#ffffff;spacingTop=-2;whiteSpace=wrap;spacingRight=12;resizeWidth=1;" parent="1" vertex="1">
          <mxGeometry x="1311" y="904.5" width="87.5" height="25" as="geometry">
            <mxPoint y="40" as="offset" />
          </mxGeometry>
        </mxCell>
        <mxCell id="wbXpezz0VNGxaIe4ll2v-235" value="" style="verticalLabelPosition=bottom;shadow=0;dashed=0;align=center;html=1;verticalAlign=top;strokeWidth=1;shape=mxgraph.mockup.containers.userMale;strokeColor=#666666;strokeColor2=#008cff;" parent="1" vertex="1">
          <mxGeometry x="1243.5" y="862" width="30" height="30" as="geometry" />
        </mxCell>
        <mxCell id="wbXpezz0VNGxaIe4ll2v-236" value="" style="verticalLabelPosition=bottom;shadow=0;dashed=0;align=center;html=1;verticalAlign=top;strokeWidth=1;shape=mxgraph.mockup.containers.userFemale;strokeColor=#666666;strokeColor2=#008cff;" parent="1" vertex="1">
          <mxGeometry x="1398.5" y="899.5" width="30" height="30" as="geometry" />
        </mxCell>
        <mxCell id="wbXpezz0VNGxaIe4ll2v-237" value="" style="html=1;strokeWidth=1;shadow=0;dashed=0;shape=mxgraph.ios7ui.callout;strokeColor=none;fillColor=#E7E6EC;align=left;verticalAlign=middle;fontSize=7;spacingLeft=17;fontColor=#000000;spacingTop=2;whiteSpace=wrap;resizeWidth=1;" parent="1" vertex="1">
          <mxGeometry x="1273.5" y="947" width="90" height="20" as="geometry">
            <mxPoint x="5" y="15" as="offset" />
          </mxGeometry>
        </mxCell>
        <mxCell id="wbXpezz0VNGxaIe4ll2v-238" value="" style="verticalLabelPosition=bottom;shadow=0;dashed=0;align=center;html=1;verticalAlign=top;strokeWidth=1;shape=mxgraph.mockup.containers.userMale;strokeColor=#666666;strokeColor2=#008cff;" parent="1" vertex="1">
          <mxGeometry x="1243.5" y="942" width="30" height="30" as="geometry" />
        </mxCell>
        <mxCell id="wbXpezz0VNGxaIe4ll2v-239" value="&lt;div style=&quot;text-align: justify&quot;&gt;&lt;br&gt;&lt;/div&gt;" style="html=1;strokeWidth=1;shadow=0;dashed=0;shape=mxgraph.ios7ui.callout;strokeColor=none;fillColor=#0680FF;flipH=1;align=center;verticalAlign=top;fontSize=7;spacingLeft=2;fontColor=#ffffff;spacingTop=-2;whiteSpace=wrap;spacingRight=12;resizeWidth=1;" parent="1" vertex="1">
          <mxGeometry x="1311" y="982" width="87.5" height="25" as="geometry">
            <mxPoint y="40" as="offset" />
          </mxGeometry>
        </mxCell>
        <mxCell id="wbXpezz0VNGxaIe4ll2v-240" value="" style="verticalLabelPosition=bottom;shadow=0;dashed=0;align=center;html=1;verticalAlign=top;strokeWidth=1;shape=mxgraph.mockup.containers.userFemale;strokeColor=#666666;strokeColor2=#008cff;" parent="1" vertex="1">
          <mxGeometry x="1398.5" y="977" width="30" height="30" as="geometry" />
        </mxCell>
        <mxCell id="wbXpezz0VNGxaIe4ll2v-241" value="xxxxxxxx" style="text;html=1;strokeColor=none;fillColor=none;align=center;verticalAlign=middle;whiteSpace=wrap;rounded=0;" parent="1" vertex="1">
          <mxGeometry x="1291" y="867" width="60" height="20" as="geometry" />
        </mxCell>
        <mxCell id="wbXpezz0VNGxaIe4ll2v-242" value="xxxxxxxx" style="text;html=1;strokeColor=none;fillColor=none;align=center;verticalAlign=middle;whiteSpace=wrap;rounded=0;" parent="1" vertex="1">
          <mxGeometry x="1321" y="909.5" width="60" height="20" as="geometry" />
        </mxCell>
        <mxCell id="wbXpezz0VNGxaIe4ll2v-243" value="xxxxxxxx" style="text;html=1;strokeColor=none;fillColor=none;align=center;verticalAlign=middle;whiteSpace=wrap;rounded=0;" parent="1" vertex="1">
          <mxGeometry x="1291" y="947" width="60" height="20" as="geometry" />
        </mxCell>
        <mxCell id="wbXpezz0VNGxaIe4ll2v-244" value="xxxxxxxx" style="text;html=1;strokeColor=none;fillColor=none;align=center;verticalAlign=middle;whiteSpace=wrap;rounded=0;" parent="1" vertex="1">
          <mxGeometry x="1321" y="987" width="60" height="20" as="geometry" />
        </mxCell>
        <mxCell id="wbXpezz0VNGxaIe4ll2v-245" value="" style="line;strokeWidth=1;html=1;" parent="1" vertex="1">
          <mxGeometry x="1241" y="852" width="190" height="10" as="geometry" />
        </mxCell>
        <mxCell id="wbXpezz0VNGxaIe4ll2v-246" value="&lt;font style=&quot;font-weight: normal ; font-size: 13px&quot;&gt;联系人1&lt;/font&gt;" style="text;strokeColor=none;fillColor=none;html=1;fontSize=24;fontStyle=1;verticalAlign=middle;align=center;" parent="1" vertex="1">
          <mxGeometry x="1301" y="826" width="70" height="30" as="geometry" />
        </mxCell>
        <mxCell id="wbXpezz0VNGxaIe4ll2v-247" value="&lt;span style=&quot;font-weight: normal&quot;&gt;&lt;font style=&quot;font-size: 18px&quot;&gt;...&lt;/font&gt;&lt;/span&gt;" style="text;strokeColor=none;fillColor=none;html=1;fontSize=24;fontStyle=1;verticalAlign=middle;align=center;" parent="1" vertex="1">
          <mxGeometry x="1401" y="821" width="30" height="40" as="geometry" />
        </mxCell>
        <mxCell id="wbXpezz0VNGxaIe4ll2v-248" value="&lt;span style=&quot;font-weight: normal&quot;&gt;&lt;font style=&quot;font-size: 18px&quot;&gt;&amp;lt;&lt;/font&gt;&lt;/span&gt;" style="text;strokeColor=none;fillColor=none;html=1;fontSize=24;fontStyle=1;verticalAlign=middle;align=center;" parent="1" vertex="1">
          <mxGeometry x="1241" y="822" width="30" height="40" as="geometry" />
        </mxCell>
        <mxCell id="wbXpezz0VNGxaIe4ll2v-249" value="&lt;span&gt;App1&lt;/span&gt;&lt;br&gt;（全屏）" style="rounded=0;whiteSpace=wrap;html=1;" parent="1" vertex="1">
          <mxGeometry x="1434.5" y="836.5" width="183" height="312" as="geometry" />
        </mxCell>
        <mxCell id="twxLrlgCtxtxjb9tiOBU-1" value="" style="rounded=0;whiteSpace=wrap;html=1;" parent="1" vertex="1">
          <mxGeometry x="257.5" y="1189" width="60" height="320" as="geometry" />
        </mxCell>
        <mxCell id="twxLrlgCtxtxjb9tiOBU-2" value="" style="rounded=0;whiteSpace=wrap;html=1;" parent="1" vertex="1">
          <mxGeometry x="67.5" y="1189" width="190" height="320" as="geometry" />
        </mxCell>
        <mxCell id="twxLrlgCtxtxjb9tiOBU-20" value="App1" style="rounded=0;whiteSpace=wrap;html=1;aspect=fixed;" parent="1" vertex="1">
          <mxGeometry x="269.12" y="1199" width="35" height="35" as="geometry" />
        </mxCell>
        <mxCell id="twxLrlgCtxtxjb9tiOBU-21" value="App2" style="rounded=0;whiteSpace=wrap;html=1;aspect=fixed;" parent="1" vertex="1">
          <mxGeometry x="269.12" y="1249" width="35" height="35" as="geometry" />
        </mxCell>
        <mxCell id="twxLrlgCtxtxjb9tiOBU-22" value="App3" style="rounded=0;whiteSpace=wrap;html=1;aspect=fixed;" parent="1" vertex="1">
          <mxGeometry x="269.12" y="1299" width="35" height="35" as="geometry" />
        </mxCell>
        <mxCell id="twxLrlgCtxtxjb9tiOBU-23" value="App4" style="rounded=0;whiteSpace=wrap;html=1;aspect=fixed;" parent="1" vertex="1">
          <mxGeometry x="268.75" y="1349" width="35" height="35" as="geometry" />
        </mxCell>
        <mxCell id="twxLrlgCtxtxjb9tiOBU-24" value="App5" style="rounded=0;whiteSpace=wrap;html=1;aspect=fixed;" parent="1" vertex="1">
          <mxGeometry x="268.75" y="1399" width="35" height="35" as="geometry" />
        </mxCell>
        <mxCell id="twxLrlgCtxtxjb9tiOBU-25" value="App6" style="rounded=0;whiteSpace=wrap;html=1;aspect=fixed;" parent="1" vertex="1">
          <mxGeometry x="268.75" y="1449" width="35" height="35" as="geometry" />
        </mxCell>
        <mxCell id="twxLrlgCtxtxjb9tiOBU-26" value="App1" style="rounded=0;whiteSpace=wrap;html=1;aspect=fixed;" parent="1" vertex="1">
          <mxGeometry x="78.5" y="1199" width="35" height="35" as="geometry" />
        </mxCell>
        <mxCell id="twxLrlgCtxtxjb9tiOBU-27" value="App2" style="rounded=0;whiteSpace=wrap;html=1;aspect=fixed;" parent="1" vertex="1">
          <mxGeometry x="124.5" y="1199" width="35" height="35" as="geometry" />
        </mxCell>
        <mxCell id="twxLrlgCtxtxjb9tiOBU-28" value="App3" style="rounded=0;whiteSpace=wrap;html=1;aspect=fixed;" parent="1" vertex="1">
          <mxGeometry x="172.5" y="1199" width="35" height="35" as="geometry" />
        </mxCell>
        <mxCell id="twxLrlgCtxtxjb9tiOBU-29" value="App4" style="rounded=0;whiteSpace=wrap;html=1;aspect=fixed;" parent="1" vertex="1">
          <mxGeometry x="216.62" y="1199" width="35" height="35" as="geometry" />
        </mxCell>
        <mxCell id="twxLrlgCtxtxjb9tiOBU-30" value="App5" style="rounded=0;whiteSpace=wrap;html=1;aspect=fixed;" parent="1" vertex="1">
          <mxGeometry x="78.5" y="1249" width="35" height="35" as="geometry" />
        </mxCell>
        <mxCell id="twxLrlgCtxtxjb9tiOBU-31" value="App6" style="rounded=0;whiteSpace=wrap;html=1;aspect=fixed;" parent="1" vertex="1">
          <mxGeometry x="124.5" y="1249" width="35" height="35" as="geometry" />
        </mxCell>
        <mxCell id="twxLrlgCtxtxjb9tiOBU-32" value="App7" style="rounded=0;whiteSpace=wrap;html=1;aspect=fixed;" parent="1" vertex="1">
          <mxGeometry x="172.5" y="1249" width="35" height="35" as="geometry" />
        </mxCell>
        <mxCell id="twxLrlgCtxtxjb9tiOBU-33" value="App8" style="rounded=0;whiteSpace=wrap;html=1;aspect=fixed;" parent="1" vertex="1">
          <mxGeometry x="216.62" y="1249" width="35" height="35" as="geometry" />
        </mxCell>
        <mxCell id="twxLrlgCtxtxjb9tiOBU-34" value="App9" style="rounded=0;whiteSpace=wrap;html=1;aspect=fixed;" parent="1" vertex="1">
          <mxGeometry x="78.5" y="1299" width="35" height="35" as="geometry" />
        </mxCell>
        <mxCell id="twxLrlgCtxtxjb9tiOBU-35" value="App10" style="rounded=0;whiteSpace=wrap;html=1;aspect=fixed;" parent="1" vertex="1">
          <mxGeometry x="124.5" y="1299" width="35" height="35" as="geometry" />
        </mxCell>
        <mxCell id="twxLrlgCtxtxjb9tiOBU-36" value="App11" style="rounded=0;whiteSpace=wrap;html=1;aspect=fixed;" parent="1" vertex="1">
          <mxGeometry x="172.5" y="1299" width="35" height="35" as="geometry" />
        </mxCell>
        <mxCell id="twxLrlgCtxtxjb9tiOBU-37" value="App12" style="rounded=0;whiteSpace=wrap;html=1;aspect=fixed;" parent="1" vertex="1">
          <mxGeometry x="216.62" y="1299" width="35" height="35" as="geometry" />
        </mxCell>
        <mxCell id="twxLrlgCtxtxjb9tiOBU-38" value="App13" style="rounded=0;whiteSpace=wrap;html=1;aspect=fixed;" parent="1" vertex="1">
          <mxGeometry x="79.38" y="1349" width="35" height="35" as="geometry" />
        </mxCell>
        <mxCell id="twxLrlgCtxtxjb9tiOBU-39" value="App14" style="rounded=0;whiteSpace=wrap;html=1;aspect=fixed;" parent="1" vertex="1">
          <mxGeometry x="125.38" y="1349" width="35" height="35" as="geometry" />
        </mxCell>
        <mxCell id="twxLrlgCtxtxjb9tiOBU-40" value="App15" style="rounded=0;whiteSpace=wrap;html=1;aspect=fixed;" parent="1" vertex="1">
          <mxGeometry x="173.38" y="1349" width="35" height="35" as="geometry" />
        </mxCell>
        <mxCell id="twxLrlgCtxtxjb9tiOBU-41" value="App16" style="rounded=0;whiteSpace=wrap;html=1;aspect=fixed;" parent="1" vertex="1">
          <mxGeometry x="217.5" y="1349" width="35" height="35" as="geometry" />
        </mxCell>
        <mxCell id="twxLrlgCtxtxjb9tiOBU-42" value="App1" style="rounded=0;whiteSpace=wrap;html=1;aspect=fixed;" parent="1" vertex="1">
          <mxGeometry x="75.5" y="1395" width="82" height="82" as="geometry" />
        </mxCell>
        <mxCell id="twxLrlgCtxtxjb9tiOBU-43" value="App2" style="rounded=0;whiteSpace=wrap;html=1;aspect=fixed;" parent="1" vertex="1">
          <mxGeometry x="170.38" y="1395" width="81" height="81" as="geometry" />
        </mxCell>
        <mxCell id="twxLrlgCtxtxjb9tiOBU-44" value="" style="rounded=0;whiteSpace=wrap;html=1;" parent="1" vertex="1">
          <mxGeometry x="74.5" y="1488" width="176" height="20" as="geometry" />
        </mxCell>
        <mxCell id="twxLrlgCtxtxjb9tiOBU-46" value="" style="rounded=0;whiteSpace=wrap;html=1;" parent="1" vertex="1">
          <mxGeometry x="353.5" y="1188" width="190" height="320" as="geometry" />
        </mxCell>
        <mxCell id="twxLrlgCtxtxjb9tiOBU-53" value="App1" style="rounded=0;whiteSpace=wrap;html=1;aspect=fixed;" parent="1" vertex="1">
          <mxGeometry x="364.5" y="1198" width="35" height="35" as="geometry" />
        </mxCell>
        <mxCell id="twxLrlgCtxtxjb9tiOBU-54" value="App2" style="rounded=0;whiteSpace=wrap;html=1;aspect=fixed;" parent="1" vertex="1">
          <mxGeometry x="410.5" y="1198" width="35" height="35" as="geometry" />
        </mxCell>
        <mxCell id="twxLrlgCtxtxjb9tiOBU-55" value="App3" style="rounded=0;whiteSpace=wrap;html=1;aspect=fixed;" parent="1" vertex="1">
          <mxGeometry x="458.5" y="1198" width="35" height="35" as="geometry" />
        </mxCell>
        <mxCell id="twxLrlgCtxtxjb9tiOBU-56" value="App4" style="rounded=0;whiteSpace=wrap;html=1;aspect=fixed;" parent="1" vertex="1">
          <mxGeometry x="502.62" y="1198" width="35" height="35" as="geometry" />
        </mxCell>
        <mxCell id="twxLrlgCtxtxjb9tiOBU-57" value="App5" style="rounded=0;whiteSpace=wrap;html=1;aspect=fixed;" parent="1" vertex="1">
          <mxGeometry x="364.5" y="1248" width="35" height="35" as="geometry" />
        </mxCell>
        <mxCell id="twxLrlgCtxtxjb9tiOBU-58" value="App6" style="rounded=0;whiteSpace=wrap;html=1;aspect=fixed;" parent="1" vertex="1">
          <mxGeometry x="410.5" y="1248" width="35" height="35" as="geometry" />
        </mxCell>
        <mxCell id="twxLrlgCtxtxjb9tiOBU-59" value="App7" style="rounded=0;whiteSpace=wrap;html=1;aspect=fixed;" parent="1" vertex="1">
          <mxGeometry x="458.5" y="1248" width="35" height="35" as="geometry" />
        </mxCell>
        <mxCell id="twxLrlgCtxtxjb9tiOBU-60" value="App8" style="rounded=0;whiteSpace=wrap;html=1;aspect=fixed;" parent="1" vertex="1">
          <mxGeometry x="502.62" y="1248" width="35" height="35" as="geometry" />
        </mxCell>
        <mxCell id="twxLrlgCtxtxjb9tiOBU-61" value="App9" style="rounded=0;whiteSpace=wrap;html=1;aspect=fixed;" parent="1" vertex="1">
          <mxGeometry x="364.5" y="1298" width="35" height="35" as="geometry" />
        </mxCell>
        <mxCell id="twxLrlgCtxtxjb9tiOBU-62" value="App10" style="rounded=0;whiteSpace=wrap;html=1;aspect=fixed;" parent="1" vertex="1">
          <mxGeometry x="410.5" y="1298" width="35" height="35" as="geometry" />
        </mxCell>
        <mxCell id="twxLrlgCtxtxjb9tiOBU-63" value="App11" style="rounded=0;whiteSpace=wrap;html=1;aspect=fixed;" parent="1" vertex="1">
          <mxGeometry x="458.5" y="1298" width="35" height="35" as="geometry" />
        </mxCell>
        <mxCell id="twxLrlgCtxtxjb9tiOBU-64" value="App12" style="rounded=0;whiteSpace=wrap;html=1;aspect=fixed;" parent="1" vertex="1">
          <mxGeometry x="502.62" y="1298" width="35" height="35" as="geometry" />
        </mxCell>
        <mxCell id="twxLrlgCtxtxjb9tiOBU-65" value="App13" style="rounded=0;whiteSpace=wrap;html=1;aspect=fixed;" parent="1" vertex="1">
          <mxGeometry x="365.38" y="1348" width="35" height="35" as="geometry" />
        </mxCell>
        <mxCell id="twxLrlgCtxtxjb9tiOBU-66" value="App14" style="rounded=0;whiteSpace=wrap;html=1;aspect=fixed;" parent="1" vertex="1">
          <mxGeometry x="411.38" y="1348" width="35" height="35" as="geometry" />
        </mxCell>
        <mxCell id="twxLrlgCtxtxjb9tiOBU-67" value="App15" style="rounded=0;whiteSpace=wrap;html=1;aspect=fixed;" parent="1" vertex="1">
          <mxGeometry x="459.38" y="1348" width="35" height="35" as="geometry" />
        </mxCell>
        <mxCell id="twxLrlgCtxtxjb9tiOBU-68" value="App16" style="rounded=0;whiteSpace=wrap;html=1;aspect=fixed;" parent="1" vertex="1">
          <mxGeometry x="503.5" y="1348" width="35" height="35" as="geometry" />
        </mxCell>
        <mxCell id="twxLrlgCtxtxjb9tiOBU-69" value="App1" style="rounded=0;whiteSpace=wrap;html=1;aspect=fixed;" parent="1" vertex="1">
          <mxGeometry x="361.5" y="1394" width="82" height="82" as="geometry" />
        </mxCell>
        <mxCell id="twxLrlgCtxtxjb9tiOBU-70" value="App2" style="rounded=0;whiteSpace=wrap;html=1;aspect=fixed;" parent="1" vertex="1">
          <mxGeometry x="456.38" y="1394" width="81" height="81" as="geometry" />
        </mxCell>
        <mxCell id="twxLrlgCtxtxjb9tiOBU-71" value="" style="rounded=0;whiteSpace=wrap;html=1;" parent="1" vertex="1">
          <mxGeometry x="360.5" y="1487" width="176" height="20" as="geometry" />
        </mxCell>
        <mxCell id="twxLrlgCtxtxjb9tiOBU-72" value="" style="rounded=0;whiteSpace=wrap;html=1;" parent="1" vertex="1">
          <mxGeometry x="543.5" y="1188" width="120" height="320" as="geometry" />
        </mxCell>
        <mxCell id="twxLrlgCtxtxjb9tiOBU-73" value="App1&lt;br&gt;小组件（2*2）" style="rounded=0;whiteSpace=wrap;html=1;aspect=fixed;" parent="1" vertex="1">
          <mxGeometry x="547.5" y="1196" width="111" height="111" as="geometry" />
        </mxCell>
        <mxCell id="twxLrlgCtxtxjb9tiOBU-74" value="App2&lt;br&gt;小组件（2*2）" style="rounded=0;whiteSpace=wrap;html=1;aspect=fixed;" parent="1" vertex="1">
          <mxGeometry x="548" y="1315" width="111" height="111" as="geometry" />
        </mxCell>
        <mxCell id="twxLrlgCtxtxjb9tiOBU-75" value="App3" style="rounded=0;whiteSpace=wrap;html=1;aspect=fixed;" parent="1" vertex="1">
          <mxGeometry x="552.6199999999999" y="1434" width="35" height="35" as="geometry" />
        </mxCell>
        <mxCell id="twxLrlgCtxtxjb9tiOBU-76" value="App4" style="rounded=0;whiteSpace=wrap;html=1;aspect=fixed;" parent="1" vertex="1">
          <mxGeometry x="616.5" y="1434" width="35" height="35" as="geometry" />
        </mxCell>
        <mxCell id="twxLrlgCtxtxjb9tiOBU-77" value="" style="rounded=0;whiteSpace=wrap;html=1;" parent="1" vertex="1">
          <mxGeometry x="59.5" y="1530" width="190" height="320" as="geometry" />
        </mxCell>
        <mxCell id="twxLrlgCtxtxjb9tiOBU-78" value="App1" style="rounded=0;whiteSpace=wrap;html=1;aspect=fixed;" parent="1" vertex="1">
          <mxGeometry x="70.5" y="1540" width="35" height="35" as="geometry" />
        </mxCell>
        <mxCell id="twxLrlgCtxtxjb9tiOBU-79" value="App2" style="rounded=0;whiteSpace=wrap;html=1;aspect=fixed;" parent="1" vertex="1">
          <mxGeometry x="116.5" y="1540" width="35" height="35" as="geometry" />
        </mxCell>
        <mxCell id="twxLrlgCtxtxjb9tiOBU-80" value="App3" style="rounded=0;whiteSpace=wrap;html=1;aspect=fixed;" parent="1" vertex="1">
          <mxGeometry x="164.5" y="1540" width="35" height="35" as="geometry" />
        </mxCell>
        <mxCell id="twxLrlgCtxtxjb9tiOBU-81" value="App4" style="rounded=0;whiteSpace=wrap;html=1;aspect=fixed;" parent="1" vertex="1">
          <mxGeometry x="208.6199999999999" y="1540" width="35" height="35" as="geometry" />
        </mxCell>
        <mxCell id="twxLrlgCtxtxjb9tiOBU-82" value="App5" style="rounded=0;whiteSpace=wrap;html=1;aspect=fixed;" parent="1" vertex="1">
          <mxGeometry x="70.5" y="1590" width="35" height="35" as="geometry" />
        </mxCell>
        <mxCell id="twxLrlgCtxtxjb9tiOBU-83" value="App6" style="rounded=0;whiteSpace=wrap;html=1;aspect=fixed;" parent="1" vertex="1">
          <mxGeometry x="116.5" y="1590" width="35" height="35" as="geometry" />
        </mxCell>
        <mxCell id="twxLrlgCtxtxjb9tiOBU-84" value="App7" style="rounded=0;whiteSpace=wrap;html=1;aspect=fixed;" parent="1" vertex="1">
          <mxGeometry x="164.5" y="1590" width="35" height="35" as="geometry" />
        </mxCell>
        <mxCell id="twxLrlgCtxtxjb9tiOBU-85" value="App8" style="rounded=0;whiteSpace=wrap;html=1;aspect=fixed;" parent="1" vertex="1">
          <mxGeometry x="208.6199999999999" y="1590" width="35" height="35" as="geometry" />
        </mxCell>
        <mxCell id="twxLrlgCtxtxjb9tiOBU-86" value="App9" style="rounded=0;whiteSpace=wrap;html=1;aspect=fixed;" parent="1" vertex="1">
          <mxGeometry x="70.5" y="1640" width="35" height="35" as="geometry" />
        </mxCell>
        <mxCell id="twxLrlgCtxtxjb9tiOBU-87" value="App10" style="rounded=0;whiteSpace=wrap;html=1;aspect=fixed;" parent="1" vertex="1">
          <mxGeometry x="116.5" y="1640" width="35" height="35" as="geometry" />
        </mxCell>
        <mxCell id="twxLrlgCtxtxjb9tiOBU-88" value="App11" style="rounded=0;whiteSpace=wrap;html=1;aspect=fixed;" parent="1" vertex="1">
          <mxGeometry x="164.5" y="1640" width="35" height="35" as="geometry" />
        </mxCell>
        <mxCell id="twxLrlgCtxtxjb9tiOBU-89" value="App12" style="rounded=0;whiteSpace=wrap;html=1;aspect=fixed;" parent="1" vertex="1">
          <mxGeometry x="208.6199999999999" y="1640" width="35" height="35" as="geometry" />
        </mxCell>
        <mxCell id="twxLrlgCtxtxjb9tiOBU-90" value="App13" style="rounded=0;whiteSpace=wrap;html=1;aspect=fixed;" parent="1" vertex="1">
          <mxGeometry x="71.38000000000011" y="1690" width="35" height="35" as="geometry" />
        </mxCell>
        <mxCell id="twxLrlgCtxtxjb9tiOBU-91" value="App14" style="rounded=0;whiteSpace=wrap;html=1;aspect=fixed;" parent="1" vertex="1">
          <mxGeometry x="117.38000000000011" y="1690" width="35" height="35" as="geometry" />
        </mxCell>
        <mxCell id="twxLrlgCtxtxjb9tiOBU-92" value="App15" style="rounded=0;whiteSpace=wrap;html=1;aspect=fixed;" parent="1" vertex="1">
          <mxGeometry x="165.3800000000001" y="1690" width="35" height="35" as="geometry" />
        </mxCell>
        <mxCell id="twxLrlgCtxtxjb9tiOBU-93" value="App16" style="rounded=0;whiteSpace=wrap;html=1;aspect=fixed;" parent="1" vertex="1">
          <mxGeometry x="209.5" y="1690" width="35" height="35" as="geometry" />
        </mxCell>
        <mxCell id="twxLrlgCtxtxjb9tiOBU-94" value="App1" style="rounded=0;whiteSpace=wrap;html=1;aspect=fixed;" parent="1" vertex="1">
          <mxGeometry x="67.5" y="1736" width="82" height="82" as="geometry" />
        </mxCell>
        <mxCell id="twxLrlgCtxtxjb9tiOBU-95" value="App2" style="rounded=0;whiteSpace=wrap;html=1;aspect=fixed;" parent="1" vertex="1">
          <mxGeometry x="162.3800000000001" y="1736" width="81" height="81" as="geometry" />
        </mxCell>
        <mxCell id="twxLrlgCtxtxjb9tiOBU-96" value="" style="rounded=0;whiteSpace=wrap;html=1;" parent="1" vertex="1">
          <mxGeometry x="66.5" y="1829" width="176" height="20" as="geometry" />
        </mxCell>
        <mxCell id="twxLrlgCtxtxjb9tiOBU-102" value="" style="rounded=0;whiteSpace=wrap;html=1;" parent="1" vertex="1">
          <mxGeometry x="249.5" y="1530" width="190" height="320" as="geometry" />
        </mxCell>
        <mxCell id="twxLrlgCtxtxjb9tiOBU-103" value="&lt;span&gt;App1&lt;/span&gt;&lt;br&gt;&lt;span&gt;小组件（4*2）&lt;/span&gt;" style="rounded=0;whiteSpace=wrap;html=1;" parent="1" vertex="1">
          <mxGeometry x="253" y="1538.75" width="183" height="97.5" as="geometry" />
        </mxCell>
        <mxCell id="twxLrlgCtxtxjb9tiOBU-104" value="&lt;span&gt;App2&lt;/span&gt;&lt;br&gt;&lt;span&gt;小组件（4*2）&lt;/span&gt;" style="rounded=0;whiteSpace=wrap;html=1;" parent="1" vertex="1">
          <mxGeometry x="253" y="1649" width="183" height="99.5" as="geometry" />
        </mxCell>
        <mxCell id="twxLrlgCtxtxjb9tiOBU-109" value="App3" style="rounded=0;whiteSpace=wrap;html=1;aspect=fixed;" parent="1" vertex="1">
          <mxGeometry x="257.94000000000005" y="1762" width="35" height="35" as="geometry" />
        </mxCell>
        <mxCell id="twxLrlgCtxtxjb9tiOBU-110" value="App4" style="rounded=0;whiteSpace=wrap;html=1;aspect=fixed;" parent="1" vertex="1">
          <mxGeometry x="303.94000000000005" y="1762" width="35" height="35" as="geometry" />
        </mxCell>
        <mxCell id="twxLrlgCtxtxjb9tiOBU-111" value="App5" style="rounded=0;whiteSpace=wrap;html=1;aspect=fixed;" parent="1" vertex="1">
          <mxGeometry x="351.94000000000005" y="1762" width="35" height="35" as="geometry" />
        </mxCell>
        <mxCell id="twxLrlgCtxtxjb9tiOBU-112" value="App6" style="rounded=0;whiteSpace=wrap;html=1;aspect=fixed;" parent="1" vertex="1">
          <mxGeometry x="396.05999999999995" y="1762" width="35" height="35" as="geometry" />
        </mxCell>
        <mxCell id="twxLrlgCtxtxjb9tiOBU-113" value="" style="rounded=0;whiteSpace=wrap;html=1;" parent="1" vertex="1">
          <mxGeometry x="646.3800000000001" y="1530" width="56" height="320" as="geometry" />
        </mxCell>
        <mxCell id="twxLrlgCtxtxjb9tiOBU-114" value="" style="rounded=0;whiteSpace=wrap;html=1;" parent="1" vertex="1">
          <mxGeometry x="456.38" y="1530" width="190" height="320" as="geometry" />
        </mxCell>
        <mxCell id="twxLrlgCtxtxjb9tiOBU-115" value="" style="verticalLabelPosition=bottom;verticalAlign=top;html=1;shadow=0;dashed=0;strokeWidth=1;shape=mxgraph.android.keyboard;" parent="1" vertex="1">
          <mxGeometry x="458.88" y="1746" width="185" height="100" as="geometry" />
        </mxCell>
        <mxCell id="twxLrlgCtxtxjb9tiOBU-116" value="" style="html=1;strokeWidth=1;shadow=0;dashed=0;shape=mxgraph.ios7ui.callout;strokeColor=none;fillColor=#E7E6EC;align=left;verticalAlign=middle;fontSize=7;spacingLeft=17;fontColor=#000000;spacingTop=2;whiteSpace=wrap;resizeWidth=1;" parent="1" vertex="1">
          <mxGeometry x="488.88" y="1565" width="90" height="20" as="geometry">
            <mxPoint x="5" y="15" as="offset" />
          </mxGeometry>
        </mxCell>
        <mxCell id="twxLrlgCtxtxjb9tiOBU-117" value="&lt;div style=&quot;text-align: justify&quot;&gt;&lt;br&gt;&lt;/div&gt;" style="html=1;strokeWidth=1;shadow=0;dashed=0;shape=mxgraph.ios7ui.callout;strokeColor=none;fillColor=#0680FF;flipH=1;align=center;verticalAlign=top;fontSize=7;spacingLeft=2;fontColor=#ffffff;spacingTop=-2;whiteSpace=wrap;spacingRight=12;resizeWidth=1;" parent="1" vertex="1">
          <mxGeometry x="526.3800000000001" y="1602.5" width="87.5" height="25" as="geometry">
            <mxPoint y="40" as="offset" />
          </mxGeometry>
        </mxCell>
        <mxCell id="twxLrlgCtxtxjb9tiOBU-118" value="" style="verticalLabelPosition=bottom;shadow=0;dashed=0;align=center;html=1;verticalAlign=top;strokeWidth=1;shape=mxgraph.mockup.containers.userMale;strokeColor=#666666;strokeColor2=#008cff;" parent="1" vertex="1">
          <mxGeometry x="458.88" y="1560" width="30" height="30" as="geometry" />
        </mxCell>
        <mxCell id="twxLrlgCtxtxjb9tiOBU-119" value="" style="verticalLabelPosition=bottom;shadow=0;dashed=0;align=center;html=1;verticalAlign=top;strokeWidth=1;shape=mxgraph.mockup.containers.userFemale;strokeColor=#666666;strokeColor2=#008cff;" parent="1" vertex="1">
          <mxGeometry x="613.8800000000001" y="1597.5" width="30" height="30" as="geometry" />
        </mxCell>
        <mxCell id="twxLrlgCtxtxjb9tiOBU-120" value="" style="html=1;strokeWidth=1;shadow=0;dashed=0;shape=mxgraph.ios7ui.callout;strokeColor=none;fillColor=#E7E6EC;align=left;verticalAlign=middle;fontSize=7;spacingLeft=17;fontColor=#000000;spacingTop=2;whiteSpace=wrap;resizeWidth=1;" parent="1" vertex="1">
          <mxGeometry x="488.88" y="1645" width="90" height="20" as="geometry">
            <mxPoint x="5" y="15" as="offset" />
          </mxGeometry>
        </mxCell>
        <mxCell id="twxLrlgCtxtxjb9tiOBU-121" value="" style="verticalLabelPosition=bottom;shadow=0;dashed=0;align=center;html=1;verticalAlign=top;strokeWidth=1;shape=mxgraph.mockup.containers.userMale;strokeColor=#666666;strokeColor2=#008cff;" parent="1" vertex="1">
          <mxGeometry x="458.88" y="1640" width="30" height="30" as="geometry" />
        </mxCell>
        <mxCell id="twxLrlgCtxtxjb9tiOBU-122" value="&lt;div style=&quot;text-align: justify&quot;&gt;&lt;br&gt;&lt;/div&gt;" style="html=1;strokeWidth=1;shadow=0;dashed=0;shape=mxgraph.ios7ui.callout;strokeColor=none;fillColor=#0680FF;flipH=1;align=center;verticalAlign=top;fontSize=7;spacingLeft=2;fontColor=#ffffff;spacingTop=-2;whiteSpace=wrap;spacingRight=12;resizeWidth=1;" parent="1" vertex="1">
          <mxGeometry x="526.3800000000001" y="1680" width="87.5" height="25" as="geometry">
            <mxPoint y="40" as="offset" />
          </mxGeometry>
        </mxCell>
        <mxCell id="twxLrlgCtxtxjb9tiOBU-123" value="" style="verticalLabelPosition=bottom;shadow=0;dashed=0;align=center;html=1;verticalAlign=top;strokeWidth=1;shape=mxgraph.mockup.containers.userFemale;strokeColor=#666666;strokeColor2=#008cff;" parent="1" vertex="1">
          <mxGeometry x="613.8800000000001" y="1675" width="30" height="30" as="geometry" />
        </mxCell>
        <mxCell id="twxLrlgCtxtxjb9tiOBU-124" value="xxxxxxxx" style="text;html=1;strokeColor=none;fillColor=none;align=center;verticalAlign=middle;whiteSpace=wrap;rounded=0;" parent="1" vertex="1">
          <mxGeometry x="506.38000000000005" y="1565" width="60" height="20" as="geometry" />
        </mxCell>
        <mxCell id="twxLrlgCtxtxjb9tiOBU-125" value="xxxxxxxx" style="text;html=1;strokeColor=none;fillColor=none;align=center;verticalAlign=middle;whiteSpace=wrap;rounded=0;" parent="1" vertex="1">
          <mxGeometry x="536.3800000000001" y="1607.5" width="60" height="20" as="geometry" />
        </mxCell>
        <mxCell id="twxLrlgCtxtxjb9tiOBU-126" value="xxxxxxxx" style="text;html=1;strokeColor=none;fillColor=none;align=center;verticalAlign=middle;whiteSpace=wrap;rounded=0;" parent="1" vertex="1">
          <mxGeometry x="506.38000000000005" y="1645" width="60" height="20" as="geometry" />
        </mxCell>
        <mxCell id="twxLrlgCtxtxjb9tiOBU-127" value="xxxxxxxx" style="text;html=1;strokeColor=none;fillColor=none;align=center;verticalAlign=middle;whiteSpace=wrap;rounded=0;" parent="1" vertex="1">
          <mxGeometry x="536.3800000000001" y="1685" width="60" height="20" as="geometry" />
        </mxCell>
        <mxCell id="twxLrlgCtxtxjb9tiOBU-128" value="" style="line;strokeWidth=1;html=1;" parent="1" vertex="1">
          <mxGeometry x="456.38" y="1550" width="190" height="10" as="geometry" />
        </mxCell>
        <mxCell id="twxLrlgCtxtxjb9tiOBU-129" value="&lt;font style=&quot;font-weight: normal ; font-size: 13px&quot;&gt;联系人1&lt;/font&gt;" style="text;strokeColor=none;fillColor=none;html=1;fontSize=24;fontStyle=1;verticalAlign=middle;align=center;" parent="1" vertex="1">
          <mxGeometry x="516.3800000000001" y="1524" width="70" height="30" as="geometry" />
        </mxCell>
        <mxCell id="twxLrlgCtxtxjb9tiOBU-130" value="&lt;span style=&quot;font-weight: normal&quot;&gt;&lt;font style=&quot;font-size: 18px&quot;&gt;...&lt;/font&gt;&lt;/span&gt;" style="text;strokeColor=none;fillColor=none;html=1;fontSize=24;fontStyle=1;verticalAlign=middle;align=center;" parent="1" vertex="1">
          <mxGeometry x="616.3800000000001" y="1519" width="30" height="40" as="geometry" />
        </mxCell>
        <mxCell id="twxLrlgCtxtxjb9tiOBU-131" value="&lt;span style=&quot;font-weight: normal&quot;&gt;&lt;font style=&quot;font-size: 18px&quot;&gt;&amp;lt;&lt;/font&gt;&lt;/span&gt;" style="text;strokeColor=none;fillColor=none;html=1;fontSize=24;fontStyle=1;verticalAlign=middle;align=center;" parent="1" vertex="1">
          <mxGeometry x="456.38" y="1520" width="30" height="40" as="geometry" />
        </mxCell>
        <mxCell id="twxLrlgCtxtxjb9tiOBU-132" value="App1" style="rounded=0;whiteSpace=wrap;html=1;aspect=fixed;" parent="1" vertex="1">
          <mxGeometry x="658" y="1540" width="35" height="35" as="geometry" />
        </mxCell>
        <mxCell id="twxLrlgCtxtxjb9tiOBU-133" value="App2" style="rounded=0;whiteSpace=wrap;html=1;aspect=fixed;" parent="1" vertex="1">
          <mxGeometry x="658" y="1590" width="35" height="35" as="geometry" />
        </mxCell>
        <mxCell id="twxLrlgCtxtxjb9tiOBU-134" value="App3" style="rounded=0;whiteSpace=wrap;html=1;aspect=fixed;" parent="1" vertex="1">
          <mxGeometry x="658" y="1640" width="35" height="35" as="geometry" />
        </mxCell>
        <mxCell id="twxLrlgCtxtxjb9tiOBU-135" value="App4" style="rounded=0;whiteSpace=wrap;html=1;aspect=fixed;" parent="1" vertex="1">
          <mxGeometry x="657.6300000000001" y="1690" width="35" height="35" as="geometry" />
        </mxCell>
        <mxCell id="twxLrlgCtxtxjb9tiOBU-136" value="App5" style="rounded=0;whiteSpace=wrap;html=1;aspect=fixed;" parent="1" vertex="1">
          <mxGeometry x="657.6300000000001" y="1740" width="35" height="35" as="geometry" />
        </mxCell>
        <mxCell id="twxLrlgCtxtxjb9tiOBU-137" value="App6" style="rounded=0;whiteSpace=wrap;html=1;aspect=fixed;" parent="1" vertex="1">
          <mxGeometry x="657.6300000000001" y="1790" width="35" height="35" as="geometry" />
        </mxCell>
        <mxCell id="twxLrlgCtxtxjb9tiOBU-141" value="App1&lt;br&gt;（浮窗）" style="rounded=0;whiteSpace=wrap;html=1;" parent="1" vertex="1">
          <mxGeometry x="464.38" y="1543" width="175" height="290" as="geometry" />
        </mxCell>
        <mxCell id="twxLrlgCtxtxjb9tiOBU-142" value="&lt;span style=&quot;font-size: 13px ; font-weight: 400&quot;&gt;X&lt;/span&gt;" style="text;strokeColor=none;fillColor=none;html=1;fontSize=24;fontStyle=1;verticalAlign=middle;align=center;" parent="1" vertex="1">
          <mxGeometry x="618.3800000000001" y="1535" width="24.5" height="30" as="geometry" />
        </mxCell>
        <mxCell id="twxLrlgCtxtxjb9tiOBU-143" value="App3" style="rounded=0;whiteSpace=wrap;html=1;aspect=fixed;" parent="1" vertex="1">
          <mxGeometry x="1090.56" y="716" width="35" height="35" as="geometry" />
        </mxCell>
        <mxCell id="twxLrlgCtxtxjb9tiOBU-144" value="App4" style="rounded=0;whiteSpace=wrap;html=1;aspect=fixed;" parent="1" vertex="1">
          <mxGeometry x="1154.44" y="716" width="35" height="35" as="geometry" />
        </mxCell>
        <mxCell id="twxLrlgCtxtxjb9tiOBU-145" value="App3" style="rounded=0;whiteSpace=wrap;html=1;aspect=fixed;" parent="1" vertex="1">
          <mxGeometry x="1040.88" y="1090.5" width="35" height="35" as="geometry" />
        </mxCell>
        <mxCell id="twxLrlgCtxtxjb9tiOBU-146" value="App4" style="rounded=0;whiteSpace=wrap;html=1;aspect=fixed;" parent="1" vertex="1">
          <mxGeometry x="1086.88" y="1090.5" width="35" height="35" as="geometry" />
        </mxCell>
        <mxCell id="twxLrlgCtxtxjb9tiOBU-147" value="App5" style="rounded=0;whiteSpace=wrap;html=1;aspect=fixed;" parent="1" vertex="1">
          <mxGeometry x="1134.88" y="1090.5" width="35" height="35" as="geometry" />
        </mxCell>
        <mxCell id="twxLrlgCtxtxjb9tiOBU-148" value="App6" style="rounded=0;whiteSpace=wrap;html=1;aspect=fixed;" parent="1" vertex="1">
          <mxGeometry x="1179" y="1090.5" width="35" height="35" as="geometry" />
        </mxCell>
      </root>
    </mxGraphModel>
  </diagram>
  <diagram id="59bjd1afLnvFATCacb94" name="Page-2">
    <mxGraphModel dx="946" dy="646" grid="1" gridSize="10" guides="1" tooltips="1" connect="1" arrows="1" fold="1" page="1" pageScale="1" pageWidth="827" pageHeight="1169" math="0" shadow="0">
      <root>
        <mxCell id="hRCEiT467SHkK3vVEo3U-0" />
        <mxCell id="hRCEiT467SHkK3vVEo3U-1" parent="hRCEiT467SHkK3vVEo3U-0" />
        <mxCell id="dZ8E37pH-Li_Uz-NCkj8-12" value="" style="edgeStyle=orthogonalEdgeStyle;rounded=0;orthogonalLoop=1;jettySize=auto;html=1;" edge="1" parent="hRCEiT467SHkK3vVEo3U-1" source="-ZidV4mu1rzwEXh5ZT5c-0" target="-ZidV4mu1rzwEXh5ZT5c-2">
          <mxGeometry relative="1" as="geometry" />
        </mxCell>
        <mxCell id="-ZidV4mu1rzwEXh5ZT5c-0" value="开始" style="shape=hexagon;perimeter=hexagonPerimeter2;whiteSpace=wrap;html=1;fixedSize=1;" vertex="1" parent="hRCEiT467SHkK3vVEo3U-1">
          <mxGeometry x="160" y="40" width="120" height="40" as="geometry" />
        </mxCell>
        <mxCell id="-ZidV4mu1rzwEXh5ZT5c-1" value="结束" style="rounded=1;whiteSpace=wrap;html=1;arcSize=50;" vertex="1" parent="hRCEiT467SHkK3vVEo3U-1">
          <mxGeometry x="160" y="520" width="120" height="40" as="geometry" />
        </mxCell>
        <mxCell id="dZ8E37pH-Li_Uz-NCkj8-13" value="" style="edgeStyle=orthogonalEdgeStyle;rounded=0;orthogonalLoop=1;jettySize=auto;html=1;" edge="1" parent="hRCEiT467SHkK3vVEo3U-1" source="-ZidV4mu1rzwEXh5ZT5c-2" target="-ZidV4mu1rzwEXh5ZT5c-3">
          <mxGeometry relative="1" as="geometry" />
        </mxCell>
        <mxCell id="-ZidV4mu1rzwEXh5ZT5c-2" value="点击设置，进入副屏小组件选定和设置页面" style="rounded=0;whiteSpace=wrap;html=1;" vertex="1" parent="hRCEiT467SHkK3vVEo3U-1">
          <mxGeometry x="80" y="120" width="280" height="40" as="geometry" />
        </mxCell>
        <mxCell id="dZ8E37pH-Li_Uz-NCkj8-14" value="" style="edgeStyle=orthogonalEdgeStyle;rounded=0;orthogonalLoop=1;jettySize=auto;html=1;" edge="1" parent="hRCEiT467SHkK3vVEo3U-1" source="-ZidV4mu1rzwEXh5ZT5c-3" target="dZ8E37pH-Li_Uz-NCkj8-0">
          <mxGeometry relative="1" as="geometry" />
        </mxCell>
        <mxCell id="-ZidV4mu1rzwEXh5ZT5c-3" value="当卷轴屏展开10%时，进行1*1图标选定设置" style="rounded=0;whiteSpace=wrap;html=1;" vertex="1" parent="hRCEiT467SHkK3vVEo3U-1">
          <mxGeometry x="80" y="200" width="280" height="40" as="geometry" />
        </mxCell>
        <mxCell id="-ZidV4mu1rzwEXh5ZT5c-5" value="" style="curved=1;endArrow=none;html=1;strokeWidth=1;endFill=0;entryX=1;entryY=0.5;entryDx=0;entryDy=0;" edge="1" parent="hRCEiT467SHkK3vVEo3U-1" target="-ZidV4mu1rzwEXh5ZT5c-2">
          <mxGeometry width="50" height="50" relative="1" as="geometry">
            <mxPoint x="400" y="130" as="sourcePoint" />
            <mxPoint x="390" y="160" as="targetPoint" />
            <Array as="points">
              <mxPoint x="390" y="150" />
              <mxPoint x="370" y="120" />
            </Array>
          </mxGeometry>
        </mxCell>
        <mxCell id="-ZidV4mu1rzwEXh5ZT5c-6" value="101" style="text;html=1;strokeColor=none;fillColor=none;align=center;verticalAlign=middle;whiteSpace=wrap;rounded=0;" vertex="1" parent="hRCEiT467SHkK3vVEo3U-1">
          <mxGeometry x="394" y="120" width="40" height="20" as="geometry" />
        </mxCell>
        <mxCell id="dZ8E37pH-Li_Uz-NCkj8-15" value="" style="edgeStyle=orthogonalEdgeStyle;rounded=0;orthogonalLoop=1;jettySize=auto;html=1;" edge="1" parent="hRCEiT467SHkK3vVEo3U-1" source="dZ8E37pH-Li_Uz-NCkj8-0" target="dZ8E37pH-Li_Uz-NCkj8-1">
          <mxGeometry relative="1" as="geometry" />
        </mxCell>
        <mxCell id="dZ8E37pH-Li_Uz-NCkj8-0" value="当卷轴屏展开50%时，进行2*2图标选定设置" style="rounded=0;whiteSpace=wrap;html=1;" vertex="1" parent="hRCEiT467SHkK3vVEo3U-1">
          <mxGeometry x="80" y="280" width="280" height="40" as="geometry" />
        </mxCell>
        <mxCell id="dZ8E37pH-Li_Uz-NCkj8-16" value="" style="edgeStyle=orthogonalEdgeStyle;rounded=0;orthogonalLoop=1;jettySize=auto;html=1;" edge="1" parent="hRCEiT467SHkK3vVEo3U-1" source="dZ8E37pH-Li_Uz-NCkj8-1" target="dZ8E37pH-Li_Uz-NCkj8-3">
          <mxGeometry relative="1" as="geometry" />
        </mxCell>
        <mxCell id="dZ8E37pH-Li_Uz-NCkj8-1" value="当卷轴屏展开100%时，进行4*2图标选定设置" style="rounded=0;whiteSpace=wrap;html=1;" vertex="1" parent="hRCEiT467SHkK3vVEo3U-1">
          <mxGeometry x="80" y="360" width="280" height="40" as="geometry" />
        </mxCell>
        <mxCell id="dZ8E37pH-Li_Uz-NCkj8-41" value="" style="edgeStyle=orthogonalEdgeStyle;rounded=0;orthogonalLoop=1;jettySize=auto;html=1;" edge="1" parent="hRCEiT467SHkK3vVEo3U-1" source="dZ8E37pH-Li_Uz-NCkj8-3" target="-ZidV4mu1rzwEXh5ZT5c-1">
          <mxGeometry relative="1" as="geometry" />
        </mxCell>
        <mxCell id="dZ8E37pH-Li_Uz-NCkj8-3" value="点击完成按键，结束设置" style="rounded=0;whiteSpace=wrap;html=1;" vertex="1" parent="hRCEiT467SHkK3vVEo3U-1">
          <mxGeometry x="80" y="440" width="280" height="40" as="geometry" />
        </mxCell>
        <mxCell id="dZ8E37pH-Li_Uz-NCkj8-4" value="" style="curved=1;endArrow=none;html=1;strokeWidth=1;endFill=0;entryX=1;entryY=0.5;entryDx=0;entryDy=0;" edge="1" parent="hRCEiT467SHkK3vVEo3U-1">
          <mxGeometry width="50" height="50" relative="1" as="geometry">
            <mxPoint x="400" y="210" as="sourcePoint" />
            <mxPoint x="360" y="220" as="targetPoint" />
            <Array as="points">
              <mxPoint x="390" y="230" />
              <mxPoint x="370" y="200" />
            </Array>
          </mxGeometry>
        </mxCell>
        <mxCell id="dZ8E37pH-Li_Uz-NCkj8-5" value="" style="curved=1;endArrow=none;html=1;strokeWidth=1;endFill=0;entryX=1;entryY=0.5;entryDx=0;entryDy=0;" edge="1" parent="hRCEiT467SHkK3vVEo3U-1">
          <mxGeometry width="50" height="50" relative="1" as="geometry">
            <mxPoint x="400" y="295" as="sourcePoint" />
            <mxPoint x="360" y="305" as="targetPoint" />
            <Array as="points">
              <mxPoint x="390" y="315" />
              <mxPoint x="370" y="285" />
            </Array>
          </mxGeometry>
        </mxCell>
        <mxCell id="dZ8E37pH-Li_Uz-NCkj8-6" value="" style="curved=1;endArrow=none;html=1;strokeWidth=1;endFill=0;entryX=1;entryY=0.5;entryDx=0;entryDy=0;" edge="1" parent="hRCEiT467SHkK3vVEo3U-1">
          <mxGeometry width="50" height="50" relative="1" as="geometry">
            <mxPoint x="400" y="375" as="sourcePoint" />
            <mxPoint x="360" y="385" as="targetPoint" />
            <Array as="points">
              <mxPoint x="390" y="395" />
              <mxPoint x="370" y="365" />
            </Array>
          </mxGeometry>
        </mxCell>
        <mxCell id="dZ8E37pH-Li_Uz-NCkj8-7" value="" style="curved=1;endArrow=none;html=1;strokeWidth=1;endFill=0;entryX=1;entryY=0.5;entryDx=0;entryDy=0;" edge="1" parent="hRCEiT467SHkK3vVEo3U-1">
          <mxGeometry width="50" height="50" relative="1" as="geometry">
            <mxPoint x="400" y="455" as="sourcePoint" />
            <mxPoint x="360" y="465" as="targetPoint" />
            <Array as="points">
              <mxPoint x="390" y="475" />
              <mxPoint x="370" y="445" />
            </Array>
          </mxGeometry>
        </mxCell>
        <mxCell id="dZ8E37pH-Li_Uz-NCkj8-8" value="102" style="text;html=1;strokeColor=none;fillColor=none;align=center;verticalAlign=middle;whiteSpace=wrap;rounded=0;" vertex="1" parent="hRCEiT467SHkK3vVEo3U-1">
          <mxGeometry x="394" y="200" width="40" height="20" as="geometry" />
        </mxCell>
        <mxCell id="dZ8E37pH-Li_Uz-NCkj8-9" value="103" style="text;html=1;strokeColor=none;fillColor=none;align=center;verticalAlign=middle;whiteSpace=wrap;rounded=0;" vertex="1" parent="hRCEiT467SHkK3vVEo3U-1">
          <mxGeometry x="394" y="280" width="40" height="20" as="geometry" />
        </mxCell>
        <mxCell id="dZ8E37pH-Li_Uz-NCkj8-10" value="104" style="text;html=1;strokeColor=none;fillColor=none;align=center;verticalAlign=middle;whiteSpace=wrap;rounded=0;" vertex="1" parent="hRCEiT467SHkK3vVEo3U-1">
          <mxGeometry x="394" y="360" width="40" height="20" as="geometry" />
        </mxCell>
        <mxCell id="dZ8E37pH-Li_Uz-NCkj8-11" value="105" style="text;html=1;strokeColor=none;fillColor=none;align=center;verticalAlign=middle;whiteSpace=wrap;rounded=0;" vertex="1" parent="hRCEiT467SHkK3vVEo3U-1">
          <mxGeometry x="394" y="440" width="40" height="20" as="geometry" />
        </mxCell>
        <mxCell id="dZ8E37pH-Li_Uz-NCkj8-18" value="" style="edgeStyle=orthogonalEdgeStyle;rounded=0;orthogonalLoop=1;jettySize=auto;html=1;" edge="1" parent="hRCEiT467SHkK3vVEo3U-1" source="dZ8E37pH-Li_Uz-NCkj8-19" target="dZ8E37pH-Li_Uz-NCkj8-21">
          <mxGeometry relative="1" as="geometry" />
        </mxCell>
        <mxCell id="dZ8E37pH-Li_Uz-NCkj8-19" value="开始" style="shape=hexagon;perimeter=hexagonPerimeter2;whiteSpace=wrap;html=1;fixedSize=1;" vertex="1" parent="hRCEiT467SHkK3vVEo3U-1">
          <mxGeometry x="640" y="40" width="120" height="40" as="geometry" />
        </mxCell>
        <mxCell id="dZ8E37pH-Li_Uz-NCkj8-20" value="" style="edgeStyle=orthogonalEdgeStyle;rounded=0;orthogonalLoop=1;jettySize=auto;html=1;" edge="1" parent="hRCEiT467SHkK3vVEo3U-1" source="dZ8E37pH-Li_Uz-NCkj8-21" target="dZ8E37pH-Li_Uz-NCkj8-23">
          <mxGeometry relative="1" as="geometry" />
        </mxCell>
        <mxCell id="dZ8E37pH-Li_Uz-NCkj8-21" value="&lt;span style=&quot;color: rgb(0 , 0 , 0) ; font-family: &amp;#34;helvetica&amp;#34; ; font-size: 12px ; font-style: normal ; font-weight: 400 ; letter-spacing: normal ; text-align: center ; text-indent: 0px ; text-transform: none ; word-spacing: 0px ; background-color: rgb(248 , 249 , 250) ; display: inline ; float: none&quot;&gt;当卷轴屏展开10%时，在副屏下显示1*1 app图标&lt;/span&gt;" style="rounded=0;whiteSpace=wrap;html=1;" vertex="1" parent="hRCEiT467SHkK3vVEo3U-1">
          <mxGeometry x="560" y="120" width="280" height="40" as="geometry" />
        </mxCell>
        <mxCell id="dZ8E37pH-Li_Uz-NCkj8-22" value="" style="edgeStyle=orthogonalEdgeStyle;rounded=0;orthogonalLoop=1;jettySize=auto;html=1;" edge="1" parent="hRCEiT467SHkK3vVEo3U-1" source="dZ8E37pH-Li_Uz-NCkj8-23" target="dZ8E37pH-Li_Uz-NCkj8-27">
          <mxGeometry relative="1" as="geometry" />
        </mxCell>
        <mxCell id="dZ8E37pH-Li_Uz-NCkj8-23" value="当在副屏下点击某个app1图标时，在主屏下以浮窗形式预览app1的信息" style="rounded=0;whiteSpace=wrap;html=1;" vertex="1" parent="hRCEiT467SHkK3vVEo3U-1">
          <mxGeometry x="560" y="200" width="280" height="40" as="geometry" />
        </mxCell>
        <mxCell id="dZ8E37pH-Li_Uz-NCkj8-24" value="" style="curved=1;endArrow=none;html=1;strokeWidth=1;endFill=0;entryX=1;entryY=0.5;entryDx=0;entryDy=0;" edge="1" parent="hRCEiT467SHkK3vVEo3U-1" target="dZ8E37pH-Li_Uz-NCkj8-21">
          <mxGeometry width="50" height="50" relative="1" as="geometry">
            <mxPoint x="880" y="130" as="sourcePoint" />
            <mxPoint x="870" y="160" as="targetPoint" />
            <Array as="points">
              <mxPoint x="870" y="150" />
              <mxPoint x="850" y="120" />
            </Array>
          </mxGeometry>
        </mxCell>
        <mxCell id="dZ8E37pH-Li_Uz-NCkj8-25" value="106" style="text;html=1;strokeColor=none;fillColor=none;align=center;verticalAlign=middle;whiteSpace=wrap;rounded=0;" vertex="1" parent="hRCEiT467SHkK3vVEo3U-1">
          <mxGeometry x="874" y="120" width="40" height="20" as="geometry" />
        </mxCell>
        <mxCell id="dZ8E37pH-Li_Uz-NCkj8-26" value="" style="edgeStyle=orthogonalEdgeStyle;rounded=0;orthogonalLoop=1;jettySize=auto;html=1;" edge="1" parent="hRCEiT467SHkK3vVEo3U-1" source="dZ8E37pH-Li_Uz-NCkj8-27" target="dZ8E37pH-Li_Uz-NCkj8-29">
          <mxGeometry relative="1" as="geometry" />
        </mxCell>
        <mxCell id="dZ8E37pH-Li_Uz-NCkj8-27" value="当卷轴屏展开10%到50%时，进一步展示更多1*1 app图标" style="rounded=0;whiteSpace=wrap;html=1;" vertex="1" parent="hRCEiT467SHkK3vVEo3U-1">
          <mxGeometry x="560" y="280" width="280" height="40" as="geometry" />
        </mxCell>
        <mxCell id="dZ8E37pH-Li_Uz-NCkj8-43" value="" style="edgeStyle=orthogonalEdgeStyle;rounded=0;orthogonalLoop=1;jettySize=auto;html=1;" edge="1" parent="hRCEiT467SHkK3vVEo3U-1" source="dZ8E37pH-Li_Uz-NCkj8-29" target="dZ8E37pH-Li_Uz-NCkj8-32">
          <mxGeometry relative="1" as="geometry" />
        </mxCell>
        <mxCell id="dZ8E37pH-Li_Uz-NCkj8-29" value="当卷轴屏展开50%时，将画面切换，展示2*2小组件" style="rounded=0;whiteSpace=wrap;html=1;" vertex="1" parent="hRCEiT467SHkK3vVEo3U-1">
          <mxGeometry x="560" y="360" width="280" height="40" as="geometry" />
        </mxCell>
        <mxCell id="dZ8E37pH-Li_Uz-NCkj8-31" value="" style="edgeStyle=orthogonalEdgeStyle;rounded=0;orthogonalLoop=1;jettySize=auto;html=1;" edge="1" parent="hRCEiT467SHkK3vVEo3U-1" source="dZ8E37pH-Li_Uz-NCkj8-32">
          <mxGeometry relative="1" as="geometry">
            <mxPoint x="700" y="520" as="targetPoint" />
          </mxGeometry>
        </mxCell>
        <mxCell id="dZ8E37pH-Li_Uz-NCkj8-32" value="当卷轴屏展开100%时，将画面切换，展示4*2小组件，此时当点击某个app1小组件，将在副屏下全屏显示app1信息" style="rounded=0;whiteSpace=wrap;html=1;" vertex="1" parent="hRCEiT467SHkK3vVEo3U-1">
          <mxGeometry x="560" y="440" width="280" height="40" as="geometry" />
        </mxCell>
        <mxCell id="dZ8E37pH-Li_Uz-NCkj8-33" value="" style="curved=1;endArrow=none;html=1;strokeWidth=1;endFill=0;entryX=1;entryY=0.5;entryDx=0;entryDy=0;" edge="1" parent="hRCEiT467SHkK3vVEo3U-1">
          <mxGeometry width="50" height="50" relative="1" as="geometry">
            <mxPoint x="880" y="210" as="sourcePoint" />
            <mxPoint x="840" y="220" as="targetPoint" />
            <Array as="points">
              <mxPoint x="870" y="230" />
              <mxPoint x="850" y="200" />
            </Array>
          </mxGeometry>
        </mxCell>
        <mxCell id="dZ8E37pH-Li_Uz-NCkj8-34" value="" style="curved=1;endArrow=none;html=1;strokeWidth=1;endFill=0;entryX=1;entryY=0.5;entryDx=0;entryDy=0;" edge="1" parent="hRCEiT467SHkK3vVEo3U-1">
          <mxGeometry width="50" height="50" relative="1" as="geometry">
            <mxPoint x="880" y="295" as="sourcePoint" />
            <mxPoint x="840" y="305" as="targetPoint" />
            <Array as="points">
              <mxPoint x="870" y="315" />
              <mxPoint x="850" y="285" />
            </Array>
          </mxGeometry>
        </mxCell>
        <mxCell id="dZ8E37pH-Li_Uz-NCkj8-35" value="" style="curved=1;endArrow=none;html=1;strokeWidth=1;endFill=0;entryX=1;entryY=0.5;entryDx=0;entryDy=0;" edge="1" parent="hRCEiT467SHkK3vVEo3U-1">
          <mxGeometry width="50" height="50" relative="1" as="geometry">
            <mxPoint x="880" y="375" as="sourcePoint" />
            <mxPoint x="840" y="385" as="targetPoint" />
            <Array as="points">
              <mxPoint x="870" y="395" />
              <mxPoint x="850" y="365" />
            </Array>
          </mxGeometry>
        </mxCell>
        <mxCell id="dZ8E37pH-Li_Uz-NCkj8-36" value="" style="curved=1;endArrow=none;html=1;strokeWidth=1;endFill=0;entryX=1;entryY=0.5;entryDx=0;entryDy=0;" edge="1" parent="hRCEiT467SHkK3vVEo3U-1">
          <mxGeometry width="50" height="50" relative="1" as="geometry">
            <mxPoint x="880" y="455" as="sourcePoint" />
            <mxPoint x="840" y="465" as="targetPoint" />
            <Array as="points">
              <mxPoint x="870" y="475" />
              <mxPoint x="850" y="445" />
            </Array>
          </mxGeometry>
        </mxCell>
        <mxCell id="dZ8E37pH-Li_Uz-NCkj8-37" value="107" style="text;html=1;strokeColor=none;fillColor=none;align=center;verticalAlign=middle;whiteSpace=wrap;rounded=0;" vertex="1" parent="hRCEiT467SHkK3vVEo3U-1">
          <mxGeometry x="874" y="200" width="40" height="20" as="geometry" />
        </mxCell>
        <mxCell id="dZ8E37pH-Li_Uz-NCkj8-38" value="108" style="text;html=1;strokeColor=none;fillColor=none;align=center;verticalAlign=middle;whiteSpace=wrap;rounded=0;" vertex="1" parent="hRCEiT467SHkK3vVEo3U-1">
          <mxGeometry x="874" y="280" width="40" height="20" as="geometry" />
        </mxCell>
        <mxCell id="dZ8E37pH-Li_Uz-NCkj8-39" value="109" style="text;html=1;strokeColor=none;fillColor=none;align=center;verticalAlign=middle;whiteSpace=wrap;rounded=0;" vertex="1" parent="hRCEiT467SHkK3vVEo3U-1">
          <mxGeometry x="874" y="360" width="40" height="20" as="geometry" />
        </mxCell>
        <mxCell id="dZ8E37pH-Li_Uz-NCkj8-40" value="110" style="text;html=1;strokeColor=none;fillColor=none;align=center;verticalAlign=middle;whiteSpace=wrap;rounded=0;" vertex="1" parent="hRCEiT467SHkK3vVEo3U-1">
          <mxGeometry x="874" y="440" width="40" height="20" as="geometry" />
        </mxCell>
        <mxCell id="dZ8E37pH-Li_Uz-NCkj8-42" value="结束" style="rounded=1;whiteSpace=wrap;html=1;arcSize=50;" vertex="1" parent="hRCEiT467SHkK3vVEo3U-1">
          <mxGeometry x="640" y="520" width="120" height="40" as="geometry" />
        </mxCell>
      </root>
    </mxGraphModel>
  </diagram>
</mxfile>
